<svg width="84" height="82" viewBox="0 0 84 82" fill="none" xmlns="http://www.w3.org/2000/svg">
<g clip-path="url(#clip0_6512_2189)">
<mask id="mask0_6512_2189" style="mask-type:luminance" maskUnits="userSpaceOnUse" x="0" y="19" width="62" height="63">
<path d="M62 19.1299H0V81.1299H62V19.1299Z" fill="white"/>
</mask>
<g mask="url(#mask0_6512_2189)">
<path d="M24.8327 26.266C24.6075 26.0407 24.295 25.9111 23.9766 25.9111C23.6581 25.9111 23.3457 26.0406 23.1204 26.266C22.8952 26.4912 22.7656 26.8036 22.7656 27.1221C22.7656 27.4406 22.8952 27.753 23.1204 27.9781C23.3457 28.2035 23.6581 28.333 23.9766 28.333C24.295 28.333 24.6075 28.2035 24.8327 27.9781C25.0579 27.753 25.1875 27.4406 25.1875 27.1221C25.1875 26.8036 25.0579 26.4912 24.8327 26.266Z" fill="#5751E1"/>
<path d="M19.5014 25.9111H14.6367C13.9679 25.9111 13.4258 26.4534 13.4258 27.1221C13.4258 27.7908 13.9679 28.333 14.6367 28.333H19.5014C20.1702 28.333 20.7124 27.7908 20.7124 27.1221C20.7124 26.4534 20.1702 25.9111 19.5014 25.9111Z" fill="#5751E1"/>
<path d="M20.4727 32.6924H14.6367C13.9679 32.6924 13.4258 33.2347 13.4258 33.9033C13.4258 34.572 13.9679 35.1143 14.6367 35.1143H20.4727C21.1415 35.1143 21.6836 34.572 21.6836 33.9033C21.6836 33.2347 21.1415 32.6924 20.4727 32.6924Z" fill="#5751E1"/>
<path d="M61.5326 44.3317C61.5327 44.3313 61.5329 44.3311 61.5331 44.3307L53.5409 38.1069C53.5352 38.1025 53.5291 38.099 53.5234 38.0946V36.8096C53.5234 36.1409 52.9813 35.5987 52.3125 35.5987C51.6437 35.5987 51.1016 36.1409 51.1016 36.8096V53.238C51.1016 53.2454 51.1025 53.2525 51.1027 53.2599L41.0828 63.2798L39.9226 62.226C38.1093 60.5786 35.8997 59.4804 33.5317 59.0216L36.6758 55.8775C37.1487 55.4046 37.1487 54.6379 36.6758 54.1649L32.6082 50.0972L50.3344 42.54C50.7044 42.3822 50.972 42.051 51.0484 41.6561C51.1248 41.2612 51.0002 40.8541 50.7158 40.5697L44.9276 34.7814C45.4175 33.9818 45.6802 33.061 45.6802 32.0995C45.6802 30.7246 45.1448 29.4322 44.1727 28.4599C43.2006 27.4878 41.908 26.9524 40.5331 26.9524C39.5716 26.9524 38.6508 27.2151 37.8512 27.705L32.063 21.9168C31.7784 21.6322 31.3715 21.5072 30.9763 21.5842C30.5813 21.6608 30.2502 21.9285 30.0925 22.2986L21.9319 41.4647L17.5396 45.8569C16.3054 47.0911 15.6256 48.7321 15.6256 50.4776C15.6256 52.223 16.3054 53.8639 17.5396 55.0981C18.7738 56.3323 20.4148 57.0121 22.1603 57.0121C23.9057 57.0121 25.5467 56.3324 26.7809 55.0981L27.2427 54.6363L31.3906 58.7842C31.2606 58.7805 31.1303 58.7778 30.9998 58.7778C27.6933 58.7778 24.5245 60.0022 22.0771 62.2256L20.9169 63.2795L10.897 53.2596C10.8971 53.2522 10.8981 53.245 10.8981 53.2375V21.5518H24.459C25.1278 21.5518 25.6699 21.0095 25.6699 20.3408C25.6699 19.6722 25.1278 19.1299 24.459 19.1299H9.6875C9.0187 19.1299 8.47656 19.6722 8.47656 20.3408V37.9011C8.46615 37.909 8.45513 37.9158 8.44496 37.924L0.45277 44.342C0.452648 44.3417 0.452891 44.3422 0.45277 44.342C0.176797 44.5639 0 44.9045 0 45.2861V74.9541C0 78.3594 2.77038 81.1299 6.17578 81.1299H55.8242C59.2296 81.1299 62 78.3594 62 74.9541V45.2861C62 44.8979 61.8167 44.5533 61.5326 44.3317ZM53.5234 41.1628L58.9635 45.3991L53.5234 50.8391V41.1628ZM40.5332 29.3746C41.2611 29.3746 41.9455 29.658 42.4603 30.1728C42.975 30.6875 43.2584 31.3718 43.2584 32.0998C43.2584 32.4001 43.2076 32.692 43.1147 32.9687L39.6643 29.5182C39.941 29.4253 40.2329 29.3746 40.5332 29.3746ZM31.6185 24.8975L36.8922 30.1711C36.8927 30.1716 36.8932 30.1722 36.8936 30.1728C36.8941 30.1734 36.8947 30.1738 36.8953 30.1743L42.4602 35.7391L47.7361 41.0151L45.1653 42.1111L30.5235 27.4693L31.6185 24.8975ZM29.5006 29.8716L42.7638 43.1348L30.7629 48.2513L24.3889 41.8772L29.5006 29.8716ZM25.0686 53.3859C24.2919 54.1627 23.2591 54.5905 22.1605 54.5905C21.062 54.5905 20.0292 54.1627 19.2523 53.3859C18.4755 52.6092 18.0477 51.5764 18.0477 50.4778C18.0477 49.3792 18.4755 48.3464 19.2523 47.5696L22.9543 43.8677L28.7703 49.6843L25.0686 53.3859ZM28.9555 52.924L30.4827 51.3969L34.107 55.0212L32.5798 56.5484L28.9555 52.924ZM8.47656 41.0046V50.8393L3.02214 45.3848L8.47656 41.0046ZM4.52055 78.1751C4.48628 78.2062 4.45468 78.2393 4.42477 78.2732C3.23478 77.6429 2.42188 76.392 2.42188 74.9541V48.2097L19.1225 64.9102L4.52055 78.1751ZM7.53566 78.708L11.5347 75.0752H20.4233C21.0921 75.0752 21.6342 74.533 21.6342 73.8643C21.6342 73.1956 21.0921 72.6533 20.4233 72.6533H14.2007L23.7059 64.0184C27.8643 60.2409 34.1358 60.2409 38.2942 64.0184L54.4643 78.708H7.53566ZM59.5781 74.9541C59.5781 76.392 58.7652 77.6429 57.5752 78.2732C57.5453 78.2391 57.5137 78.2062 57.4795 78.1751L42.8776 64.9102L59.5781 48.2097V74.9541Z" fill="#807AF9"/>
<path d="M53.2167 19.5323C52.7438 19.0596 51.977 19.0596 51.5042 19.5323L46.6125 24.424C46.1396 24.8969 46.1396 25.6637 46.6125 26.1367C46.849 26.373 47.1588 26.4914 47.4687 26.4914C47.7786 26.4914 48.0886 26.373 48.325 26.1367L53.2167 21.245C53.6896 20.7721 53.6896 20.0053 53.2167 19.5323Z" fill="white"/>
<path d="M42.9179 19.1299C42.2491 19.1299 41.707 19.6722 41.707 20.3408V22.7732C41.707 23.4419 42.2491 23.9842 42.9179 23.9842C43.5867 23.9842 44.1288 23.4419 44.1288 22.7732V20.3408C44.1288 19.6722 43.5867 19.1299 42.9179 19.1299Z" fill="white"/>
<path d="M52.3966 28.5171H49.8828C49.214 28.5171 48.6719 29.0594 48.6719 29.7281C48.6719 30.3967 49.214 30.939 49.8828 30.939H52.3966C53.0654 30.939 53.6076 30.3967 53.6076 29.7281C53.6076 29.0594 53.0654 28.5171 52.3966 28.5171Z" fill="white"/>
<path d="M26.2448 73.0081C26.0184 72.7829 25.7071 72.6533 25.3887 72.6533C25.069 72.6533 24.7578 72.7828 24.5313 73.0081C24.3061 73.2334 24.1777 73.5458 24.1777 73.8643C24.1777 74.1828 24.3061 74.4952 24.5313 74.7203C24.7578 74.9456 25.0702 75.0752 25.3887 75.0752C25.7071 75.0752 26.0184 74.9456 26.2448 74.7203C26.47 74.4952 26.5996 74.1828 26.5996 73.8643C26.5996 73.5458 26.47 73.2334 26.2448 73.0081Z" fill="white"/>
</g>
<path d="M84 13.5533C83.4937 13.9302 83.2405 14.3071 82.9873 14.4328C81.7215 14.9354 80.4557 15.4379 79.1899 15.9405C77.2911 16.5687 76.1519 17.8252 75.8987 19.8355C75.6456 21.4689 75.3924 23.1023 75.0127 24.7357C74.8861 25.2382 74.5063 25.9921 74.1266 26.1178C73.3671 26.2434 73.3671 25.3639 73.2405 24.8613C72.7342 23.3536 72.2278 21.7202 71.8481 20.2124C71.2152 18.0765 69.8228 16.9457 67.5443 16.9457C66.6582 16.9457 65.8987 16.82 65.0127 16.6944C64.5063 16.6944 64.2532 16.4431 64 16.1918C64.2532 15.9405 64.3797 15.5636 64.6329 15.4379C65.8987 14.9354 67.2911 14.4328 68.557 14.0558C69.8228 13.6789 70.7089 12.7994 70.962 11.5429C71.4684 9.53261 71.8481 7.52229 72.3544 5.63762C72.6076 5.00939 72.3544 4.12988 73.2405 4.12988C74.1266 4.12988 74 4.88375 74.1266 5.38633C74.5063 7.14536 74.8861 8.77874 75.3924 10.5378C76.0253 12.7994 76.5316 13.1763 78.9367 13.1763C80.2025 13.1763 81.5949 13.0507 82.8608 13.0507C82.9873 13.0507 83.3671 13.302 84 13.5533Z" fill="#434087"/>
<path d="M67 4.84156C66.7468 5.03003 66.6203 5.2185 66.4937 5.28132C65.8608 5.53261 65.2278 5.7839 64.5949 6.03519C63.6456 6.3493 63.0759 6.97753 62.9494 7.98269C62.8228 8.79938 62.6962 9.61607 62.5063 10.4328C62.443 10.6841 62.2532 11.061 62.0633 11.1238C61.6835 11.1867 61.6835 10.7469 61.6203 10.4956C61.3671 9.74172 61.1139 8.92502 60.9241 8.17115C60.6076 7.10317 59.9114 6.53777 58.7722 6.53777C58.3291 6.53777 57.9494 6.47495 57.5063 6.41213C57.2532 6.41213 57.1266 6.28648 57 6.16084C57.1266 6.03519 57.1899 5.84672 57.3165 5.7839C57.9494 5.53261 58.6456 5.28132 59.2785 5.09285C59.9114 4.90439 60.3544 4.46463 60.481 3.8364C60.7342 2.83125 60.9241 1.82609 61.1772 0.883752C61.3038 0.56964 61.1772 0.129883 61.6203 0.129883C62.0633 0.129883 62 0.506818 62.0633 0.758108C62.2532 1.63762 62.443 2.45431 62.6962 3.33383C63.0127 4.46463 63.2658 4.6531 64.4684 4.6531C65.1013 4.6531 65.7975 4.59027 66.4304 4.59027C66.4937 4.59027 66.6835 4.71592 67 4.84156Z" fill="#6663A9"/>
</g>
<defs>
<clipPath id="clip0_6512_2189">
<rect width="84" height="81" fill="white" transform="translate(0 0.129883)"/>
</clipPath>
</defs>
</svg>
