<svg width="94" height="94" viewBox="0 0 94 94" fill="none" xmlns="http://www.w3.org/2000/svg">
<g clip-path="url(#clip0_6512_2146)">
<path d="M20.9844 45.1845C20.303 45.1845 19.75 44.6315 19.75 43.9501V39.4792C19.75 39.0916 19.9302 38.7287 20.2388 38.4966C21.4979 37.5437 22.2188 36.1118 22.2188 34.5688V30.8657C22.2188 28.1427 20.0043 25.9282 17.2812 25.9282C14.5582 25.9282 12.3438 28.1427 12.3438 30.8657V34.5688C12.3438 36.1118 13.0646 37.5437 14.3237 38.4966C14.6323 38.7287 14.8125 39.0941 14.8125 39.4817V43.9526C14.8125 44.6339 14.2595 45.1869 13.5781 45.1869C12.8968 45.1869 12.3438 44.6315 12.3438 43.9501V40.0618C10.7662 38.6522 9.875 36.6821 9.875 34.5688V30.8657C9.875 26.7824 13.1979 23.4595 17.2812 23.4595C21.3646 23.4595 24.6875 26.7824 24.6875 30.8657V34.5688C24.6875 36.6821 23.7963 38.6497 22.2188 40.0618V43.9501C22.2188 44.6315 21.6658 45.1845 20.9844 45.1845Z" fill="white"/>
<path d="M18.5233 41.8517C17.9506 41.8517 17.4371 41.4492 17.3161 40.8666C17.1803 40.1976 17.6099 39.5458 18.2789 39.4101C20.56 38.9385 22.2191 36.9043 22.2191 34.5688C22.2191 33.8875 22.772 33.3345 23.4534 33.3345C24.1348 33.3345 24.6878 33.8875 24.6878 34.5688C24.6878 38.0695 22.1993 41.1209 18.7727 41.8245C18.6887 41.8418 18.6073 41.8517 18.5233 41.8517Z" fill="white"/>
<path d="M25.6103 47.12C25.4474 47.12 25.282 47.0879 25.124 47.0187L20.4975 45.0314C19.8705 44.7623 19.5816 44.0365 19.8507 43.4094C20.1173 42.7799 20.8432 42.496 21.4702 42.7626L26.0967 44.75C26.7237 45.0191 27.0126 45.7449 26.7435 46.3719C26.5435 46.841 26.0868 47.12 25.6103 47.12Z" fill="white"/>
<path d="M9.875 62.0631C9.70466 62.0631 9.52938 62.0285 9.36397 61.952L4.63878 59.8042C3.32047 59.2018 2.46875 57.8786 2.46875 56.4319V53.0102C2.46875 49.549 4.51781 46.4384 7.68769 45.0855L13.0868 42.7427C13.7188 42.4711 14.4397 42.7575 14.7113 43.3821C14.9804 44.0067 14.694 44.735 14.0694 45.0065L8.66531 47.3518C6.399 48.322 4.9375 50.5415 4.9375 53.0102V56.4319C4.9375 56.9133 5.22141 57.3577 5.66084 57.5576L10.386 59.7054C11.0057 59.9869 11.2797 60.7201 10.9983 61.3398C10.7909 61.794 10.3416 62.0631 9.875 62.0631Z" fill="white"/>
<path d="M22.0682 33.1123C19.6093 33.1123 17.259 32.2655 15.2717 30.6633C14.7434 30.2362 14.6594 29.461 15.0841 28.9302C15.5161 28.3994 16.2938 28.318 16.8196 28.7451C18.4045 30.0214 20.2857 30.7102 22.2138 30.6435C22.0953 28.0217 19.9277 25.9282 17.2812 25.9282C14.5582 25.9282 12.3438 28.1427 12.3438 30.8657V31.7792C12.3438 32.4605 11.7907 33.0135 11.1094 33.0135C10.428 33.0135 9.875 32.463 9.875 31.7792V30.8657C9.875 26.7824 13.1979 23.4595 17.2812 23.4595C21.3646 23.4595 24.6875 26.7824 24.6875 30.8657V31.7298C24.6875 32.3371 24.2456 32.8531 23.6482 32.9493C23.0779 33.0407 22.5841 33.1123 22.0682 33.1123Z" fill="white"/>
<path d="M65.4219 45.1845C64.7405 45.1845 64.1875 44.6315 64.1875 43.9501V39.4792C64.1875 39.0916 64.3677 38.7287 64.6763 38.4966C65.9354 37.5437 66.6562 36.1118 66.6562 34.5688V30.8657C66.6562 28.1427 64.4418 25.9282 61.7188 25.9282C58.9957 25.9282 56.7812 28.1427 56.7812 30.8657V34.5688C56.7812 36.1118 57.5021 37.5437 58.7612 38.4966C59.0698 38.7287 59.25 39.0941 59.25 39.4817V43.9526C59.25 44.6339 58.697 45.1869 58.0156 45.1869C57.3343 45.1869 56.7812 44.6339 56.7812 43.9526V40.0643C55.2037 38.6546 54.3125 36.6846 54.3125 34.5713V30.8682C54.3125 26.7849 57.6354 23.4619 61.7188 23.4619C65.8021 23.4619 69.125 26.7849 69.125 30.8682V34.5713C69.125 36.6846 68.2338 38.6522 66.6562 40.0643V43.9526C66.6562 44.6315 66.1032 45.1845 65.4219 45.1845Z" fill="white"/>
<path d="M62.9608 41.8517C62.3881 41.8517 61.8746 41.4492 61.7536 40.8666C61.6178 40.1976 62.0474 39.5458 62.7164 39.4101C64.9975 38.9385 66.6565 36.9043 66.6565 34.5688C66.6565 33.8875 67.2096 33.3345 67.8909 33.3345C68.5723 33.3345 69.1253 33.8875 69.1253 34.5688C69.1253 38.0695 66.6368 41.1209 63.2102 41.8245C63.1262 41.8418 63.0448 41.8517 62.9608 41.8517Z" fill="white"/>
<path d="M53.7514 46.9643C53.2749 46.9643 52.8182 46.6854 52.6182 46.2163C52.3491 45.5917 52.638 44.8634 53.2651 44.5943L57.5286 42.7625C58.1507 42.4984 58.879 42.7798 59.1481 43.4093C59.4172 44.0339 59.1283 44.7622 58.5013 45.0313L54.2377 46.8631C54.0797 46.9322 53.9168 46.9643 53.7514 46.9643Z" fill="white"/>
<path d="M69.1249 62.0631C68.6583 62.0631 68.209 61.794 68.0016 61.3398C67.7202 60.7201 67.9942 59.9869 68.6139 59.7054L73.3391 57.5576C73.7785 57.3577 74.0624 56.9158 74.0624 56.4319V53.0102C74.0624 50.5415 72.6009 48.322 70.342 47.3568L64.9305 45.0065C64.3059 44.735 64.0195 44.0091 64.2886 43.3821C64.5602 42.755 65.2761 42.4686 65.9131 42.7427L71.3172 45.088C74.4821 46.4384 76.5311 49.549 76.5311 53.0102V56.4319C76.5311 57.8786 75.6794 59.2018 74.3611 59.8042L69.6359 61.952C69.4705 62.0261 69.2952 62.0631 69.1249 62.0631Z" fill="white"/>
<path d="M42.7341 29.424C39.2235 29.424 35.5698 28.1871 33.5553 26.3751C33.0467 25.9183 33.0047 25.1382 33.4614 24.6321C33.9182 24.126 34.7057 24.0841 35.2044 24.5408C37.6386 26.7281 43.4697 27.8711 46.81 26.0788C47.4099 25.7554 48.1604 25.9801 48.4813 26.5824C48.8047 27.1848 48.5776 27.9304 47.9777 28.2538C46.4545 29.066 44.6152 29.424 42.7341 29.424Z" fill="white"/>
<path d="M39.4828 51.8498C35.3872 51.8498 33.2517 48.6552 32.6938 46.9641C32.479 46.3149 32.832 45.6187 33.4788 45.4039C34.1256 45.1916 34.8193 45.5421 35.0341 46.184C35.086 46.3321 36.1796 49.3786 39.4828 49.3786C42.8132 49.3786 43.9858 46.2383 44.0377 46.105C44.2673 45.4656 44.9832 45.1323 45.6127 45.3594C46.2521 45.5866 46.5904 46.2852 46.3657 46.9271C46.2941 47.1295 44.5882 51.8498 39.4828 51.8498Z" fill="white"/>
<path d="M62.9531 61.7252C62.2718 61.7252 61.7188 61.1722 61.7188 60.4908V59.802C61.7188 56.1409 59.4105 52.8673 55.9764 51.6601L45.6793 48.0063C44.198 47.4904 43.2031 46.0881 43.2031 44.5205V41.4839C43.2031 40.8025 43.7561 40.2495 44.4375 40.2495C45.1189 40.2495 45.6719 40.8025 45.6719 41.4839V44.5205C45.6719 45.0389 46.0052 45.503 46.4989 45.6758L56.7985 49.3321C61.2176 50.8849 64.1875 55.0941 64.1875 59.802V60.4933C64.1875 61.1747 63.6345 61.7252 62.9531 61.7252Z" fill="white"/>
<path d="M16.0469 61.7252C15.3655 61.7252 14.8125 61.1722 14.8125 60.4908V59.8242C14.8125 59.054 14.894 58.2813 15.0544 57.5184C15.8494 53.7585 18.5996 50.6232 22.2237 49.3296L32.4986 45.7252C32.9948 45.5524 33.3281 45.0858 33.3281 44.5674V41.4814C33.3281 40.8001 33.8811 40.2471 34.5625 40.2471C35.2439 40.2471 35.7969 40.8001 35.7969 41.4814V44.5674C35.7969 46.1326 34.802 47.5348 33.3158 48.0557L23.0483 51.6576C20.2265 52.6624 18.0885 55.104 17.4689 58.0295C17.343 58.622 17.2812 59.2268 17.2812 59.8242V60.4908C17.2812 61.1747 16.7282 61.7252 16.0469 61.7252Z" fill="white"/>
<path d="M39.5 44.4438C38.8186 44.4438 38.2656 43.8908 38.2656 43.2095C38.2656 42.5281 38.8186 41.9751 39.5 41.9751C42.0626 41.9751 46.9062 39.6545 46.9062 30.8657V27.1626C46.9062 23.0793 43.5833 19.7563 39.5 19.7563C35.4167 19.7563 32.0938 23.0793 32.0938 27.1626V30.8657C32.0938 35.1218 33.2318 38.3781 35.3821 40.2815C35.8932 40.7333 35.9425 41.5134 35.4883 42.0245C35.0316 42.538 34.2539 42.5799 33.7478 42.1306C31.8666 40.4667 29.625 37.1635 29.625 30.8657V27.1626C29.625 21.7165 34.0539 17.2876 39.5 17.2876C44.9461 17.2876 49.375 21.7165 49.375 27.1626V30.8657C49.375 41.6072 42.9167 44.4438 39.5 44.4438Z" fill="white"/>
<path d="M58.3076 83.9439C57.8534 83.9439 57.4189 83.6921 57.2016 83.2576C56.9004 82.6453 57.1498 81.9071 57.762 81.6035L63.8672 78.5793C64.2104 78.4089 64.6202 78.4089 64.9609 78.5793L68.9504 80.5567L68.3011 76.1525C68.2468 75.7723 68.3702 75.3847 68.6418 75.1107L71.7598 71.9235L67.3655 71.1755C66.9877 71.1113 66.6594 70.8718 66.4792 70.5312L64.4153 66.5861L62.349 70.5312C62.1687 70.8718 61.8404 71.1113 61.4627 71.1755L57.0708 71.9235L60.1863 75.1107C60.6628 75.5995 60.6529 76.3796 60.1666 76.8561C59.6778 77.335 58.8952 77.3251 58.4212 76.8363L53.659 71.9655C53.338 71.6371 53.2245 71.1582 53.3676 70.7212C53.5108 70.2843 53.8811 69.9633 54.3354 69.8868L60.448 68.845L63.3241 63.3545C63.5389 62.9471 63.961 62.6929 64.4178 62.6929C64.8794 62.6929 65.2966 62.9496 65.5114 63.3545L68.385 68.845L74.5001 69.8868C74.9544 69.9633 75.3247 70.2867 75.4679 70.7212C75.6111 71.1557 75.4975 71.6371 75.1766 71.9655L70.839 76.3969L71.7425 82.5293C71.8067 82.9835 71.6166 83.4378 71.2463 83.7069C70.876 83.9784 70.3823 84.0204 69.9725 83.813L64.4178 81.0604L58.8606 83.813C58.6804 83.9044 58.4928 83.9439 58.3076 83.9439Z" fill="#807AF9"/>
<path d="M32.2812 90.6613C32.0244 90.6613 31.7701 90.5823 31.5553 90.4268C31.185 90.1577 30.9925 89.7035 31.0591 89.2467L32.1404 81.8824L26.9363 76.5598C26.6154 76.2315 26.5018 75.7525 26.645 75.3156C26.7882 74.8786 27.1585 74.5552 27.6127 74.4811L34.9548 73.2319L38.4061 66.6379C38.8357 65.8232 40.1663 65.8232 40.5959 66.6379L44.0472 73.2319L51.3893 74.4811C51.8435 74.5577 52.2138 74.8811 52.357 75.3156C52.5002 75.7501 52.3866 76.2315 52.0657 76.5598L46.8591 81.8824L47.9429 89.2467C48.0071 89.701 47.817 90.1552 47.4467 90.4243C47.0764 90.6984 46.5826 90.7354 46.1728 90.5305L39.4998 87.2248L32.8292 90.5305C32.6564 90.6169 32.4688 90.6613 32.2812 90.6613ZM30.3481 76.5179L34.3327 80.5938C34.6018 80.8703 34.7277 81.2554 34.6734 81.6356L33.8439 87.2717L38.9517 84.7413C39.2949 84.5684 39.7047 84.5684 40.0454 84.7413L45.1507 87.2717L44.3212 81.6356C44.2669 81.2554 44.3904 80.8678 44.6619 80.5938L48.649 76.5179L43.0276 75.56C42.6499 75.4958 42.3216 75.2563 42.1413 74.9156L39.4998 69.867L36.8582 74.9156C36.678 75.2563 36.3496 75.4958 35.9719 75.56L30.3481 76.5179Z" fill="#5751E1"/>
<path d="M20.8921 83.9438C20.707 83.9438 20.5218 83.9018 20.344 83.8154L14.7894 81.0627L9.23222 83.8179C8.82488 84.0203 8.3336 83.9808 7.95835 83.7092C7.58803 83.4402 7.39547 82.9859 7.46213 82.5317L8.36569 76.3993L4.0281 71.9679C3.70716 71.6395 3.5936 71.1606 3.73678 70.7236C3.87997 70.2867 4.25028 69.9633 4.70453 69.8892L10.8196 68.8474L13.6957 63.3569C13.9105 62.9495 14.3326 62.6953 14.7894 62.6953C15.251 62.6953 15.6682 62.952 15.883 63.3569L18.7566 68.8474L24.8693 69.8892C25.3235 69.9657 25.6938 70.2891 25.837 70.7236C25.9802 71.1581 25.8666 71.6395 25.5457 71.9679L20.7835 76.8362C20.312 77.3251 19.5294 77.3349 19.0381 76.856C18.5517 76.3795 18.5419 75.5994 19.0183 75.1106L22.1339 71.9234L17.742 71.1754C17.3618 71.1112 17.0359 70.8718 16.8557 70.5311L14.7918 66.586L12.7255 70.5311C12.5453 70.8718 12.2169 71.1112 11.8392 71.1754L7.44485 71.9234L10.5629 75.1106C10.832 75.3871 10.9579 75.7722 10.9035 76.1524L10.2543 80.5567L14.2462 78.5792C14.5894 78.4088 14.9992 78.4088 15.3399 78.5792L21.4426 81.6034C22.0549 81.9071 22.3042 82.6452 22.003 83.2575C21.7809 83.692 21.3439 83.9438 20.8921 83.9438Z" fill="#807AF9"/>
<path d="M94 13.5533C93.4937 13.9302 93.2405 14.3071 92.9873 14.4328C91.7215 14.9354 90.4557 15.4379 89.1899 15.9405C87.2911 16.5687 86.1519 17.8252 85.8987 19.8355C85.6456 21.4689 85.3924 23.1023 85.0127 24.7357C84.8861 25.2382 84.5063 25.9921 84.1266 26.1178C83.3671 26.2434 83.3671 25.3639 83.2405 24.8613C82.7342 23.3536 82.2278 21.7202 81.8481 20.2124C81.2152 18.0765 79.8228 16.9457 77.5443 16.9457C76.6582 16.9457 75.8987 16.82 75.0127 16.6944C74.5063 16.6944 74.2532 16.4431 74 16.1918C74.2532 15.9405 74.3797 15.5636 74.6329 15.4379C75.8987 14.9354 77.2911 14.4328 78.557 14.0558C79.8228 13.6789 80.7089 12.7994 80.962 11.5429C81.4684 9.53261 81.8481 7.52229 82.3544 5.63762C82.6076 5.00939 82.3544 4.12988 83.2405 4.12988C84.1266 4.12988 84 4.88375 84.1266 5.38633C84.5063 7.14536 84.8861 8.77874 85.3924 10.5378C86.0253 12.7994 86.5316 13.1763 88.9367 13.1763C90.2025 13.1763 91.5949 13.0507 92.8608 13.0507C92.9873 13.0507 93.3671 13.302 94 13.5533Z" fill="#434087"/>
<path d="M77 4.84156C76.7468 5.03003 76.6203 5.2185 76.4937 5.28132C75.8608 5.53261 75.2278 5.7839 74.5949 6.03519C73.6456 6.3493 73.0759 6.97753 72.9494 7.98269C72.8228 8.79938 72.6962 9.61607 72.5063 10.4328C72.443 10.6841 72.2532 11.061 72.0633 11.1238C71.6835 11.1867 71.6835 10.7469 71.6203 10.4956C71.3671 9.74172 71.1139 8.92502 70.9241 8.17115C70.6076 7.10317 69.9114 6.53777 68.7722 6.53777C68.3291 6.53777 67.9494 6.47495 67.5063 6.41213C67.2532 6.41213 67.1266 6.28648 67 6.16084C67.1266 6.03519 67.1899 5.84672 67.3165 5.7839C67.9494 5.53261 68.6456 5.28132 69.2785 5.09285C69.9114 4.90439 70.3544 4.46463 70.481 3.8364C70.7342 2.83125 70.9241 1.82609 71.1772 0.883752C71.3038 0.56964 71.1772 0.129883 71.6203 0.129883C72.0633 0.129883 72 0.506818 72.0633 0.758108C72.2532 1.63762 72.443 2.45431 72.6962 3.33383C73.0127 4.46463 73.2658 4.6531 74.4684 4.6531C75.1013 4.6531 75.7975 4.59027 76.4304 4.59027C76.4937 4.59027 76.6835 4.71592 77 4.84156Z" fill="#6663A9"/>
</g>
<defs>
<clipPath id="clip0_6512_2146">
<rect width="94" height="93" fill="white" transform="translate(0 0.129883)"/>
</clipPath>
</defs>
</svg>
