<svg width="94" height="91" viewBox="0 0 94 91" fill="none" xmlns="http://www.w3.org/2000/svg">
<g clip-path="url(#clip0_6512_2176)">
<path d="M66.8667 22.7627H1.13333C0.50745 22.7627 0 23.2702 0 23.896V69.2294C0 69.8553 0.50745 70.3627 1.13333 70.3627H21.5979C21.6319 70.7401 21.6875 71.1118 21.7543 71.4802L15.538 78.8888C15.1354 79.368 15.1976 80.0829 15.6768 80.4855C15.8118 80.599 15.9716 80.6793 16.1432 80.7202L22.9863 82.3545L25.7845 88.8145C26.0332 89.3888 26.7005 89.6529 27.2748 89.4041C27.4366 89.3341 27.5797 89.2273 27.693 89.0922L33.8991 81.696C33.9331 81.696 33.966 81.696 34 81.696C34.034 81.696 34.0669 81.696 34.1009 81.696L40.307 89.0922C40.709 89.5719 41.4239 89.6348 41.9036 89.2327C42.0386 89.1195 42.1454 88.9763 42.2155 88.8145L45.0137 82.3545L51.8568 80.7202C52.4657 80.5752 52.8418 79.964 52.6967 79.3551C52.6558 79.1836 52.5755 79.0238 52.462 78.8888L46.2457 71.4802C46.3125 71.1118 46.3681 70.7401 46.4021 70.3627H66.8667C67.4926 70.3627 68 69.8553 68 69.2294V23.896C68 23.27 67.4926 22.7627 66.8667 22.7627ZM27.1354 86.2294L24.8404 80.9367C24.6986 80.6095 24.411 80.3681 24.0641 80.285L18.4541 78.9443L22.5227 74.0948C22.5443 74.1446 22.5726 74.19 22.5941 74.2398C22.7415 74.5798 22.9013 74.9028 23.0781 75.2236C23.1506 75.3573 23.2277 75.4888 23.3047 75.6191C23.4604 75.8782 23.625 76.1321 23.7989 76.3807C23.9201 76.5541 24.0471 76.7207 24.1774 76.8907C24.3293 77.0834 24.4857 77.2715 24.65 77.4574C24.8143 77.6432 25.0059 77.8484 25.1951 78.0365C25.3345 78.1759 25.4785 78.3108 25.6258 78.4434C25.7482 78.5567 25.8581 78.6757 25.9862 78.7834C26.1143 78.891 26.2344 78.9636 26.3568 79.0588C26.4123 79.1018 26.4599 79.1517 26.5166 79.1936C26.6186 79.2707 26.7263 79.3376 26.8305 79.4112C26.9937 79.5246 27.1547 79.647 27.3235 79.7512C27.6454 79.9575 27.9775 80.1456 28.3141 80.3179C28.4433 80.3836 28.5747 80.4437 28.7062 80.5049C29.0084 80.647 29.3125 80.7762 29.6185 80.8925C29.7069 80.9254 29.7942 80.9628 29.8826 80.9934C30.3119 81.1442 30.7493 81.271 31.1927 81.373L31.2052 81.3764L27.1354 86.2294ZM36.1284 79.1891C35.6086 79.2989 35.0812 79.3683 34.5508 79.3965H34.5361C34.357 79.4056 34.1779 79.418 33.9977 79.418C33.8175 79.418 33.6385 79.4056 33.4594 79.3965H33.4447C32.9154 79.3682 32.3891 79.2992 31.8705 79.1902L31.7753 79.171C31.5735 79.1268 31.3741 79.0724 31.1769 79.0157C31.0941 78.9919 31.0103 78.9704 30.9287 78.9443C30.787 78.9001 30.6476 78.848 30.5082 78.7981C30.3688 78.7482 30.2362 78.6995 30.1025 78.644C30.0197 78.6088 29.9381 78.5714 29.8565 78.5306C29.6707 78.4468 29.4859 78.3618 29.3057 78.2677L29.2151 78.2178C28.7479 77.9679 28.3008 77.6822 27.8777 77.3633C27.642 77.1876 27.4244 76.9938 27.2102 76.8023C26.9569 76.5763 26.7151 76.3376 26.486 76.0872C26.3953 75.9897 26.2979 75.8968 26.2117 75.7959C25.8953 75.4236 25.6065 75.0285 25.3481 74.6138C25.3096 74.5526 25.2767 74.488 25.2348 74.4246C24.9938 74.022 24.7817 73.6026 24.6001 73.17C24.5843 73.1314 24.5661 73.0929 24.5514 73.0566C24.3507 72.5608 24.1892 72.0501 24.0686 71.5289C24.0686 71.5085 24.0527 71.4926 24.0471 71.4722C23.8825 70.736 23.7996 69.9837 23.8 69.2294C23.7966 63.596 28.3605 59.0267 33.9938 59.0231C39.6271 59.0197 44.1965 63.5837 44.2 69.2169C44.2004 69.9799 44.1153 70.7405 43.9461 71.4846C43.9405 71.5038 43.9291 71.5208 43.9246 71.5401C43.8042 72.0607 43.6431 72.5711 43.4429 73.0667C43.4271 73.1064 43.4089 73.146 43.3919 73.18C43.2109 73.61 42.9995 74.0266 42.7595 74.4267C42.7221 74.4902 42.6881 74.557 42.6462 74.6205C42.3878 75.0346 42.0995 75.4293 41.7837 75.8014C41.6987 75.9012 41.6024 75.9918 41.5129 76.0893C41.2807 76.342 41.0359 76.583 40.7796 76.8112C40.5643 77.0028 40.3501 77.1966 40.1155 77.3711C39.8809 77.5456 39.6712 77.693 39.4423 77.8392L39.4287 77.8471C39.2235 77.9774 39.0139 78.0976 38.8008 78.2109C38.7589 78.2336 38.7181 78.2574 38.6761 78.2789C38.505 78.3684 38.3361 78.4489 38.1559 78.5271C38.0653 78.5679 37.9757 78.6098 37.8839 78.6472C37.757 78.7005 37.6278 78.747 37.4986 78.7934C37.3694 78.8399 37.2096 78.9 37.0623 78.9453C36.9841 78.9702 36.9047 78.9918 36.8254 79.0144C36.6248 79.0711 36.4231 79.1278 36.2191 79.1708L36.1284 79.1891ZM49.5459 78.9409L43.9359 80.2816C43.589 80.3647 43.3014 80.6061 43.1596 80.9333L40.8646 86.2294L36.7948 81.3798H36.805C37.2501 81.2781 37.6891 81.151 38.1197 80.999C38.2047 80.9696 38.2863 80.9344 38.3713 80.9038C38.6875 80.7837 38.9991 80.6522 39.3051 80.506C39.4298 80.4482 39.5545 80.3927 39.6769 80.3292C40.0169 80.1524 40.3569 79.9609 40.6833 79.7512C40.8408 79.6515 40.9915 79.5393 41.1445 79.4316C41.2579 79.3534 41.3712 79.282 41.4845 79.1993C41.5446 79.154 41.5979 79.1007 41.6568 79.0542C41.7701 78.9613 41.9016 78.8831 42.0172 78.7856C42.1328 78.6882 42.2507 78.559 42.3708 78.4524C42.5204 78.3164 42.6677 78.1793 42.8105 78.0376C42.9971 77.8511 43.1777 77.6591 43.3523 77.4619C43.5166 77.276 43.673 77.0879 43.826 76.8952C43.9563 76.7286 44.0833 76.5552 44.2045 76.3852C44.3791 76.1382 44.5445 75.8843 44.6975 75.6259C44.7769 75.4944 44.8539 75.3618 44.9242 75.227C45.1003 74.9074 45.2608 74.5805 45.4059 74.2466C45.4263 74.1888 45.4557 74.1424 45.4773 74.0914L49.5459 78.9409ZM65.7333 68.096H46.4089C45.7939 61.2422 39.7391 56.1846 32.8852 56.7997C26.8837 57.3383 22.1275 62.0945 21.5889 68.096H2.26667V25.0294H65.7333V68.096Z" fill="#807AF9"/>
<path d="M5.66653 27.2964C5.04065 27.2964 4.5332 27.8038 4.5332 28.4297V32.963H6.79987V29.563H10.1999V27.2964H5.66653Z" fill="white"/>
<path d="M62.3341 27.2964H57.8008V29.563H61.2008V32.963H63.4675V28.4297C63.4675 27.8037 62.96 27.2964 62.3341 27.2964Z" fill="white"/>
<path d="M61.2008 60.1626V63.5626H57.8008V65.8293H62.3341C62.96 65.8293 63.4675 65.3218 63.4675 64.6959V60.1626H61.2008Z" fill="white"/>
<path d="M6.79987 63.5626V60.1626H4.5332V64.6959C4.5332 65.3218 5.04065 65.8293 5.66653 65.8293H10.1999V63.5626H6.79987Z" fill="white"/>
<path d="M47.6004 35.2295H20.4004V37.4961H47.6004V35.2295Z" fill="white"/>
<path d="M54.3996 42.0293H13.5996V44.296H54.3996V42.0293Z" fill="white"/>
<path d="M33.9997 61.2964C29.6182 61.2964 26.0664 64.8482 26.0664 69.2297C26.0713 73.609 29.6204 77.1581 33.9997 77.163C38.3812 77.163 41.933 73.6112 41.933 69.2297C41.933 64.8482 38.3812 61.2964 33.9997 61.2964ZM33.9997 74.8964C30.8702 74.8964 28.333 72.3592 28.333 69.2297C28.3367 66.1017 30.8717 63.5667 33.9997 63.563C37.1293 63.563 39.6664 66.1001 39.6664 69.2297C39.6664 72.3592 37.1293 74.8964 33.9997 74.8964Z" fill="#5751E1"/>
<path d="M94 13.5533C93.4937 13.9302 93.2405 14.3071 92.9873 14.4328C91.7215 14.9354 90.4557 15.4379 89.1899 15.9405C87.2911 16.5687 86.1519 17.8252 85.8987 19.8355C85.6456 21.4689 85.3924 23.1023 85.0127 24.7357C84.8861 25.2382 84.5063 25.9921 84.1266 26.1178C83.3671 26.2434 83.3671 25.3639 83.2405 24.8613C82.7342 23.3536 82.2278 21.7202 81.8481 20.2124C81.2152 18.0765 79.8228 16.9457 77.5443 16.9457C76.6582 16.9457 75.8987 16.82 75.0127 16.6944C74.5063 16.6944 74.2532 16.4431 74 16.1918C74.2532 15.9405 74.3797 15.5636 74.6329 15.4379C75.8987 14.9354 77.2911 14.4328 78.557 14.0558C79.8228 13.6789 80.7089 12.7994 80.962 11.5429C81.4684 9.53261 81.8481 7.52229 82.3544 5.63762C82.6076 5.00939 82.3544 4.12988 83.2405 4.12988C84.1266 4.12988 84 4.88375 84.1266 5.38633C84.5063 7.14536 84.8861 8.77874 85.3924 10.5378C86.0253 12.7994 86.5316 13.1763 88.9367 13.1763C90.2025 13.1763 91.5949 13.0507 92.8608 13.0507C92.9873 13.0507 93.3671 13.302 94 13.5533Z" fill="#434087"/>
<path d="M77 4.84156C76.7468 5.03003 76.6203 5.2185 76.4937 5.28132C75.8608 5.53261 75.2278 5.7839 74.5949 6.03519C73.6456 6.3493 73.0759 6.97753 72.9494 7.98269C72.8228 8.79938 72.6962 9.61607 72.5063 10.4328C72.443 10.6841 72.2532 11.061 72.0633 11.1238C71.6835 11.1867 71.6835 10.7469 71.6203 10.4956C71.3671 9.74172 71.1139 8.92502 70.9241 8.17115C70.6076 7.10317 69.9114 6.53777 68.7722 6.53777C68.3291 6.53777 67.9494 6.47495 67.5063 6.41213C67.2532 6.41213 67.1266 6.28648 67 6.16084C67.1266 6.03519 67.1899 5.84672 67.3165 5.7839C67.9494 5.53261 68.6456 5.28132 69.2785 5.09285C69.9114 4.90439 70.3544 4.46463 70.481 3.8364C70.7342 2.83125 70.9241 1.82609 71.1772 0.883752C71.3038 0.56964 71.1772 0.129883 71.6203 0.129883C72.0633 0.129883 72 0.506818 72.0633 0.758108C72.2532 1.63762 72.443 2.45431 72.6962 3.33383C73.0127 4.46463 73.2658 4.6531 74.4684 4.6531C75.1013 4.6531 75.7975 4.59027 76.4304 4.59027C76.4937 4.59027 76.6835 4.71592 77 4.84156Z" fill="#6663A9"/>
</g>
<defs>
<clipPath id="clip0_6512_2176">
<rect width="94" height="90" fill="white" transform="translate(0 0.129883)"/>
</clipPath>
</defs>
</svg>
