<svg width="150" height="151" viewBox="0 0 150 151" fill="none" xmlns="http://www.w3.org/2000/svg">
<rect x="0.5" y="1.28003" width="149" height="149" rx="74.5" fill="url(#paint0_linear_6512_1875)"/>
<rect x="0.5" y="1.28003" width="149" height="149" rx="74.5" stroke="#C9C9DD"/>
<g clip-path="url(#clip0_6512_1875)">
<path d="M95.5236 51.03H54.2736C52.4402 51.03 50.8513 51.7023 49.5069 53.0467C48.1625 54.3911 47.4902 56.0411 47.4902 57.9967V93.7467C47.4902 95.58 48.1625 97.1689 49.5069 98.5134C50.8513 99.8578 52.4402 100.53 54.2736 100.53H95.5236C97.4791 100.53 99.1291 99.8578 100.474 98.5134C101.818 97.1689 102.49 95.58 102.49 93.7467V57.9967C102.49 56.0411 101.818 54.3911 100.474 53.0467C99.1291 51.7023 97.4791 51.03 95.5236 51.03ZM54.2736 53.78H95.5236C96.7458 53.78 97.7541 54.1772 98.5486 54.9717C99.343 55.7661 99.7402 56.7745 99.7402 57.9967V59.28H50.2402V57.9967C50.2402 56.7745 50.6375 55.7661 51.4319 54.9717C52.2263 54.1772 53.1736 53.78 54.2736 53.78ZM95.5236 97.78H54.2736C53.1736 97.78 52.2263 97.3828 51.4319 96.5884C50.6375 95.7939 50.2402 94.8467 50.2402 93.7467V62.03H99.7402V93.7467C99.7402 94.8467 99.343 95.7939 98.5486 96.5884C97.7541 97.3828 96.7458 97.78 95.5236 97.78ZM78.1069 67.53C77.7402 67.53 77.3736 67.6217 77.0069 67.805C76.6402 67.9884 76.4569 68.2634 76.4569 68.63L70.9569 90.63C70.8347 91.1189 70.9569 91.5467 71.3236 91.9134C71.6902 92.28 72.118 92.4023 72.6069 92.28C73.0958 92.1578 73.4013 91.8523 73.5236 91.3634L79.0236 69.18C79.1458 68.8134 79.1152 68.4772 78.9319 68.1717C78.7486 67.8661 78.4736 67.6523 78.1069 67.53ZM66.3736 73.3967C66.1291 73.1523 65.793 73.03 65.3652 73.03C64.9375 73.03 64.6013 73.1523 64.3569 73.3967L58.8569 78.8967C58.6125 79.2634 58.4902 79.63 58.4902 79.9967C58.4902 80.3634 58.6125 80.6689 58.8569 80.9134L64.3569 86.4134C64.6013 86.6578 64.9375 86.78 65.3652 86.78C65.793 86.78 66.1291 86.6578 66.3736 86.4134C66.618 86.1689 66.7402 85.8634 66.7402 85.4967C66.7402 85.13 66.618 84.8245 66.3736 84.58L61.7902 79.9967L66.3736 75.4134C66.618 75.1689 66.7402 74.8634 66.7402 74.4967C66.7402 74.13 66.618 73.7634 66.3736 73.3967ZM85.6236 73.3967C85.3791 73.1523 85.043 73.03 84.6152 73.03C84.1875 73.03 83.8513 73.1828 83.6069 73.4884C83.3625 73.7939 83.2402 74.13 83.2402 74.4967C83.2402 74.8634 83.3625 75.1689 83.6069 75.4134L88.1902 79.9967L83.6069 84.58C83.2402 84.9467 83.118 85.3745 83.2402 85.8634C83.3625 86.3523 83.6986 86.6578 84.2486 86.78C84.7986 86.9023 85.2569 86.78 85.6236 86.4134L91.1236 80.9134C91.368 80.6689 91.4902 80.3634 91.4902 79.9967C91.4902 79.63 91.368 79.2634 91.1236 78.8967L85.6236 73.3967Z" fill="#7F7E97"/>
</g>
<g clip-path="url(#clip1_6512_1875)">
<g clip-path="url(#clip2_6512_1875)">
<path d="M123 41.2034C122.494 41.5803 122.241 41.9572 121.987 42.0829C120.722 42.5855 119.456 43.088 118.19 43.5906C116.291 44.2188 115.152 45.4753 114.899 47.4856C114.646 49.119 114.392 50.7524 114.013 52.3858C113.886 52.8883 113.506 53.6422 113.127 53.7679C112.367 53.8935 112.367 53.014 112.24 52.5114C111.734 51.0037 111.228 49.3703 110.848 47.8625C110.215 45.7266 108.823 44.5958 106.544 44.5958C105.658 44.5958 104.899 44.4701 104.013 44.3445C103.506 44.3445 103.253 44.0932 103 43.8419C103.253 43.5906 103.38 43.2137 103.633 43.088C104.899 42.5855 106.291 42.0829 107.557 41.7059C108.823 41.329 109.709 40.4495 109.962 39.193C110.468 37.1828 110.848 35.1724 111.354 33.2878C111.608 32.6595 111.354 31.78 112.24 31.78C113.127 31.78 113 32.5339 113.127 33.0365C113.506 34.7955 113.886 36.4289 114.392 38.1879C115.025 40.4495 115.532 40.8264 117.937 40.8264C119.203 40.8264 120.595 40.7008 121.861 40.7008C121.987 40.7008 122.367 40.9521 123 41.2034Z" fill="#CECCFD"/>
<path d="M103 32.4917C102.747 32.6802 102.62 32.8686 102.494 32.9315C101.861 33.1828 101.228 33.434 100.595 33.6853C99.6456 33.9994 99.0759 34.6277 98.9494 35.6328C98.8228 36.4495 98.6962 37.2662 98.5063 38.0829C98.443 38.3342 98.2532 38.7111 98.0633 38.7739C97.6835 38.8368 97.6835 38.397 97.6203 38.1457C97.3671 37.3919 97.1139 36.5752 96.9241 35.8213C96.6076 34.7533 95.9114 34.1879 94.7722 34.1879C94.3291 34.1879 93.9494 34.1251 93.5063 34.0623C93.2532 34.0623 93.1266 33.9366 93 33.811C93.1266 33.6853 93.1899 33.4969 93.3165 33.434C93.9494 33.1828 94.6456 32.9315 95.2785 32.743C95.9114 32.5545 96.3544 32.1148 96.481 31.4865C96.7342 30.4814 96.924 29.4762 97.1772 28.5339C97.3038 28.2198 97.1772 27.78 97.6203 27.78C98.0633 27.78 98 28.157 98.0633 28.4083C98.2532 29.2878 98.443 30.1045 98.6962 30.984C99.0127 32.1148 99.2658 32.3032 100.468 32.3032C101.101 32.3032 101.797 32.2404 102.43 32.2404C102.494 32.2404 102.684 32.3661 103 32.4917Z" fill="#CECCFD"/>
</g>
</g>
<defs>
<linearGradient id="paint0_linear_6512_1875" x1="75" y1="0.780029" x2="75" y2="150.78" gradientUnits="userSpaceOnUse">
<stop stop-color="white"/>
<stop offset="1" stop-color="#F1F1FA"/>
</linearGradient>
<clipPath id="clip0_6512_1875">
<rect width="55.02" height="55" fill="white" transform="matrix(1 0 0 -1 47.4805 103.28)"/>
</clipPath>
<clipPath id="clip1_6512_1875">
<rect width="30" height="26" fill="white" transform="translate(93 27.78)"/>
</clipPath>
<clipPath id="clip2_6512_1875">
<rect width="30" height="26" fill="white" transform="translate(93 27.78)"/>
</clipPath>
</defs>
</svg>
