<svg width="150" height="151" viewBox="0 0 150 151" fill="none" xmlns="http://www.w3.org/2000/svg">
<rect x="0.5" y="1.28003" width="149" height="149" rx="74.5" fill="url(#paint0_linear_6512_1864)"/>
<rect x="0.5" y="1.28003" width="149" height="149" rx="74.5" stroke="#C9C9DD"/>
<g clip-path="url(#clip0_6512_1864)">
<path d="M102.49 75.78C102.49 70.7689 101.268 66.155 98.8236 61.9384C96.3791 57.7217 93.0486 54.3911 88.8319 51.9467C84.6152 49.5023 80.0625 48.28 75.1736 48.28C70.2847 48.28 65.7013 49.4411 61.4236 51.7634H58.1236V48.28H52.8069V59.4634C49.2625 64.3522 47.4902 69.7911 47.4902 75.78C47.4902 80.7911 48.7125 85.405 51.1569 89.6217C53.6013 93.8384 56.9319 97.1689 61.1486 99.6134C65.3652 102.058 69.9791 103.28 74.9902 103.28C78.4125 103.28 81.6513 102.669 84.7069 101.447C86.6625 102.669 88.7402 103.28 90.9402 103.28C93.7513 103.28 96.2569 102.363 98.4569 100.53L97.3569 99.0634C95.5236 100.652 93.3847 101.447 90.9402 101.447C88.2513 101.447 85.9597 100.499 84.0652 98.605C82.1708 96.7106 81.2236 94.4189 81.2236 91.73C81.2236 89.0411 82.1708 86.7495 84.0652 84.855C85.9597 82.9606 88.2513 82.0134 90.9402 82.0134C93.6291 82.0134 95.9208 82.9606 97.8152 84.855C99.7097 86.7495 100.657 89.0411 100.657 91.73C100.657 94.0523 99.9847 96.0689 98.6402 97.78L99.9236 99.0634C101.635 96.8634 102.49 94.4189 102.49 91.73C102.49 89.53 101.879 87.4523 100.657 85.4967C101.879 82.4411 102.49 79.2023 102.49 75.78ZM61.6069 57.08H63.4402V69.5467H61.6069V57.08ZM58.1236 53.5967H59.9569V69.5467H58.1236V53.5967ZM54.6402 50.1134H56.2902V69.5467H54.6402V50.1134ZM74.0736 101.447C69.6736 101.324 65.6097 100.133 61.8819 97.8717C58.1541 95.6106 55.1597 92.6161 52.8986 88.8884C50.6375 85.1606 49.4458 81.0967 49.3236 76.6967H74.0736V101.447ZM74.0736 74.8634H49.3236C49.4458 70.5856 50.6069 66.5522 52.8069 62.7634V71.38H72.2402V62.3967H68.7569V58.9134H65.2736V55.43H61.6069V53.78C65.518 51.4578 69.6736 50.2356 74.0736 50.1134V74.8634ZM65.2736 69.5467V60.7467H66.9236V69.5467H65.2736ZM68.7569 69.5467V64.23H70.5902V69.5467H68.7569ZM100.657 74.8634H93.1402L99.5569 68.4467C100.29 70.5245 100.657 72.6634 100.657 74.8634ZM96.2569 61.2967L86.3569 71.1967L87.6402 72.48L97.1736 62.7634C97.9069 63.9856 98.518 65.2078 99.0069 66.43L90.5736 74.8634H85.0736L86.1736 73.7634L85.0736 72.48L82.6902 74.8634H77.1902L93.8736 58.18C94.7291 59.1578 95.5236 60.1967 96.2569 61.2967ZM75.9069 50.1134C78.1069 50.1134 80.2458 50.48 82.3236 51.2134L75.9069 57.63V50.1134ZM75.9069 68.08L86.7236 57.4467L85.4402 56.1634L75.9069 65.6967V60.1967L84.3402 51.7634C85.5625 52.2523 86.7847 52.8634 88.0069 53.5967L86.5402 55.0634L87.8236 56.3467L89.4736 54.5134C90.5736 55.2467 91.6125 56.0411 92.5902 56.8967L75.9069 73.58V68.08ZM90.9402 80.18C88.8625 80.18 86.9375 80.6995 85.1652 81.7384C83.393 82.7773 81.9875 84.1828 80.9486 85.955C79.9097 87.7273 79.3902 89.6523 79.3902 91.73C79.3902 93.3189 79.7263 94.8467 80.3986 96.3134C81.0708 97.78 81.9569 99.0634 83.0569 100.163C80.7347 101.019 78.3513 101.447 75.9069 101.447V76.6967H100.657C100.657 79.1411 100.229 81.5245 99.3736 83.8467C98.2736 82.7467 96.9902 81.8606 95.5236 81.1884C94.0569 80.5161 92.5291 80.18 90.9402 80.18ZM58.4902 91.18L69.1236 80.5467L70.2236 81.6467L59.5902 92.4634L58.4902 91.18ZM67.8402 87.33C67.1069 87.33 66.4958 87.5745 66.0069 88.0634C65.518 88.5523 65.2736 89.1634 65.2736 89.8967C65.2736 90.63 65.518 91.2717 66.0069 91.8217C66.4958 92.3717 67.1069 92.6467 67.8402 92.6467C68.5736 92.6467 69.2152 92.3717 69.7652 91.8217C70.3152 91.2717 70.5902 90.63 70.5902 89.8967C70.5902 89.1634 70.3152 88.5523 69.7652 88.0634C69.2152 87.5745 68.5736 87.33 67.8402 87.33ZM67.8402 90.8134C67.5958 90.8134 67.3819 90.7217 67.1986 90.5384C67.0152 90.355 66.9236 90.1411 66.9236 89.8967C66.9236 89.6523 67.0152 89.4689 67.1986 89.3467C67.3819 89.2245 67.5958 89.1634 67.8402 89.1634C68.0847 89.1634 68.2986 89.2245 68.4819 89.3467C68.6652 89.4689 68.7569 89.6523 68.7569 89.8967C68.7569 90.1411 68.6652 90.355 68.4819 90.5384C68.2986 90.7217 68.0847 90.8134 67.8402 90.8134ZM60.8736 80.18C60.1402 80.18 59.4986 80.455 58.9486 81.005C58.3986 81.555 58.1236 82.1967 58.1236 82.93C58.1236 83.6634 58.3986 84.2745 58.9486 84.7634C59.4986 85.2523 60.1402 85.4967 60.8736 85.4967C61.6069 85.4967 62.218 85.2523 62.7069 84.7634C63.1958 84.2745 63.4402 83.6634 63.4402 82.93C63.4402 82.1967 63.1958 81.555 62.7069 81.005C62.218 80.455 61.6069 80.18 60.8736 80.18ZM60.8736 83.8467C60.6291 83.8467 60.4152 83.755 60.2319 83.5717C60.0486 83.3884 59.9569 83.1745 59.9569 82.93C59.9569 82.6856 60.0486 82.4717 60.2319 82.2884C60.4152 82.105 60.6291 82.0134 60.8736 82.0134C61.118 82.0134 61.3013 82.105 61.4236 82.2884C61.5458 82.4717 61.6069 82.6856 61.6069 82.93C61.6069 83.1745 61.5458 83.3884 61.4236 83.5717C61.3013 83.755 61.118 83.8467 60.8736 83.8467ZM90.9402 90.8134C90.4513 90.8134 90.0236 90.6606 89.6569 90.355C89.2902 90.0495 89.1069 89.6523 89.1069 89.1634C89.1069 88.6745 89.2902 88.2467 89.6569 87.88C90.0236 87.5134 90.4513 87.33 90.9402 87.33C91.4291 87.33 91.8569 87.5134 92.2236 87.88C92.5902 88.2467 92.7736 88.6745 92.7736 89.1634H94.4236C94.4236 88.3078 94.1791 87.5745 93.6902 86.9634C93.2013 86.3523 92.5902 85.9245 91.8569 85.68V83.8467H90.0236V85.68C89.2902 85.9245 88.6791 86.3523 88.1902 86.9634C87.7013 87.5745 87.4569 88.3384 87.4569 89.255C87.4569 90.1717 87.793 90.9661 88.4652 91.6384C89.1375 92.3106 89.9625 92.6467 90.9402 92.6467C91.4291 92.6467 91.8569 92.83 92.2236 93.1967C92.5902 93.5634 92.7736 93.9911 92.7736 94.48C92.7736 94.9689 92.5902 95.3661 92.2236 95.6717C91.8569 95.9773 91.4291 96.13 90.9402 96.13C90.4513 96.13 90.0236 95.9773 89.6569 95.6717C89.2902 95.3661 89.1069 94.9689 89.1069 94.48H87.4569C87.4569 95.2134 87.7013 95.9161 88.1902 96.5884C88.6791 97.2606 89.2902 97.6578 90.0236 97.78V99.7967H91.8569V97.78C92.5902 97.6578 93.2013 97.2606 93.6902 96.5884C94.1791 95.9161 94.4236 95.1523 94.4236 94.2967C94.4236 93.4411 94.0875 92.6467 93.4152 91.9134C92.743 91.18 91.918 90.8134 90.9402 90.8134ZM97.1736 90.8134H99.0069V92.6467H97.1736V90.8134ZM83.0569 90.8134H84.7069V92.6467H83.0569V90.8134Z" fill="#7F7E97"/>
</g>
<g clip-path="url(#clip1_6512_1864)">
<g clip-path="url(#clip2_6512_1864)">
<path d="M123 41.2034C122.494 41.5803 122.241 41.9572 121.987 42.0829C120.722 42.5855 119.456 43.088 118.19 43.5906C116.291 44.2188 115.152 45.4753 114.899 47.4856C114.646 49.119 114.392 50.7524 114.013 52.3858C113.886 52.8883 113.506 53.6422 113.127 53.7679C112.367 53.8935 112.367 53.014 112.24 52.5114C111.734 51.0037 111.228 49.3703 110.848 47.8625C110.215 45.7266 108.823 44.5958 106.544 44.5958C105.658 44.5958 104.899 44.4701 104.013 44.3445C103.506 44.3445 103.253 44.0932 103 43.8419C103.253 43.5906 103.38 43.2137 103.633 43.088C104.899 42.5855 106.291 42.0829 107.557 41.7059C108.823 41.329 109.709 40.4495 109.962 39.193C110.468 37.1828 110.848 35.1724 111.354 33.2878C111.608 32.6595 111.354 31.78 112.24 31.78C113.127 31.78 113 32.5339 113.127 33.0365C113.506 34.7955 113.886 36.4289 114.392 38.1879C115.025 40.4495 115.532 40.8264 117.937 40.8264C119.203 40.8264 120.595 40.7008 121.861 40.7008C121.987 40.7008 122.367 40.9521 123 41.2034Z" fill="#CECCFD"/>
<path d="M103 32.4917C102.747 32.6802 102.62 32.8686 102.494 32.9315C101.861 33.1828 101.228 33.434 100.595 33.6853C99.6456 33.9994 99.0759 34.6277 98.9494 35.6328C98.8228 36.4495 98.6962 37.2662 98.5063 38.0829C98.443 38.3342 98.2532 38.7111 98.0633 38.7739C97.6835 38.8368 97.6835 38.397 97.6203 38.1457C97.3671 37.3919 97.1139 36.5752 96.9241 35.8213C96.6076 34.7533 95.9114 34.1879 94.7722 34.1879C94.3291 34.1879 93.9494 34.1251 93.5063 34.0623C93.2532 34.0623 93.1266 33.9366 93 33.811C93.1266 33.6853 93.1899 33.4969 93.3165 33.434C93.9494 33.1828 94.6456 32.9315 95.2785 32.743C95.9114 32.5545 96.3544 32.1148 96.481 31.4865C96.7342 30.4814 96.924 29.4762 97.1772 28.5339C97.3038 28.2198 97.1772 27.78 97.6203 27.78C98.0633 27.78 98 28.157 98.0633 28.4083C98.2532 29.2878 98.443 30.1045 98.6962 30.984C99.0127 32.1148 99.2658 32.3032 100.468 32.3032C101.101 32.3032 101.797 32.2404 102.43 32.2404C102.494 32.2404 102.684 32.3661 103 32.4917Z" fill="#CECCFD"/>
</g>
</g>
<defs>
<linearGradient id="paint0_linear_6512_1864" x1="75" y1="0.780029" x2="75" y2="150.78" gradientUnits="userSpaceOnUse">
<stop stop-color="white"/>
<stop offset="1" stop-color="#F1F1FA"/>
</linearGradient>
<clipPath id="clip0_6512_1864">
<rect width="55.02" height="55" fill="white" transform="matrix(1 0 0 -1 47.4805 103.28)"/>
</clipPath>
<clipPath id="clip1_6512_1864">
<rect width="30" height="26" fill="white" transform="translate(93 27.78)"/>
</clipPath>
<clipPath id="clip2_6512_1864">
<rect width="30" height="26" fill="white" transform="translate(93 27.78)"/>
</clipPath>
</defs>
</svg>
