<svg width="150" height="151" viewBox="0 0 150 151" fill="none" xmlns="http://www.w3.org/2000/svg">
<rect x="0.5" y="1.28003" width="149" height="149" rx="74.5" fill="url(#paint0_linear_6512_1853)"/>
<rect x="0.5" y="1.28003" width="149" height="149" rx="74.5" stroke="#C9C9DD"/>
<g clip-path="url(#clip0_6512_1853)">
<path d="M94.9736 56.8967H101.39C101.757 56.8967 102.032 56.7745 102.215 56.53C102.399 56.2856 102.49 56.0411 102.49 55.7967V49.38C102.49 49.0134 102.399 48.7384 102.215 48.555C102.032 48.3717 101.757 48.28 101.39 48.28H94.9736C94.7291 48.28 94.4847 48.3717 94.2402 48.555C93.9958 48.7384 93.8736 49.0134 93.8736 49.38V51.3967H79.2069V49.38C79.2069 49.0134 79.1152 48.7384 78.9319 48.555C78.7486 48.3717 78.4736 48.28 78.1069 48.28H71.8736C71.5069 48.28 71.2319 48.3717 71.0486 48.555C70.8652 48.7384 70.7736 49.0134 70.7736 49.38V51.3967H56.1069V49.38C56.1069 49.0134 55.9847 48.7384 55.7402 48.555C55.4958 48.3717 55.2513 48.28 55.0069 48.28H48.5902C48.2236 48.28 47.9486 48.3717 47.7652 48.555C47.5819 48.7384 47.4902 49.0134 47.4902 49.38V55.7967C47.4902 56.0411 47.5819 56.2856 47.7652 56.53C47.9486 56.7745 48.2236 56.8967 48.5902 56.8967H55.0069C55.2513 56.8967 55.4958 56.7745 55.7402 56.53C55.9847 56.2856 56.1069 56.0411 56.1069 55.7967V53.5967H64.9069C61.7291 55.0634 58.9791 57.1411 56.6569 59.83C54.8236 61.9078 53.418 64.23 52.4402 66.7967C51.4625 69.3634 50.9125 71.9911 50.7902 74.68H48.5902C48.2236 74.68 47.9486 74.8023 47.7652 75.0467C47.5819 75.2911 47.4902 75.5356 47.4902 75.78V82.1967C47.4902 82.4411 47.5819 82.6856 47.7652 82.93C47.9486 83.1745 48.2236 83.2967 48.5902 83.2967H55.0069C55.2513 83.2967 55.4958 83.1745 55.7402 82.93C55.9847 82.6856 56.1069 82.4411 56.1069 82.1967V75.78C56.1069 75.5356 55.9847 75.2911 55.7402 75.0467C55.4958 74.8023 55.2513 74.68 55.0069 74.68H52.8069C53.0513 71.38 53.968 68.2634 55.5569 65.33C57.1458 62.3967 59.2541 59.9523 61.8819 57.9967C64.5097 56.0411 67.4736 54.6967 70.7736 53.9634V55.7967C70.7736 56.0411 70.8652 56.2856 71.0486 56.53C71.2319 56.7745 71.5069 56.8967 71.8736 56.8967H78.1069C78.4736 56.8967 78.7486 56.7745 78.9319 56.53C79.1152 56.2856 79.2069 56.0411 79.2069 55.7967V53.9634C82.5069 54.6967 85.4708 56.0411 88.0986 57.9967C90.7263 59.9523 92.8347 62.3967 94.4236 65.33C96.0125 68.2634 96.9291 71.38 97.1736 74.68H94.9736C94.7291 74.68 94.4847 74.8023 94.2402 75.0467C93.9958 75.2911 93.8736 75.5356 93.8736 75.78V82.1967C93.8736 82.4411 93.9958 82.6856 94.2402 82.93C94.4847 83.1745 94.7291 83.2967 94.9736 83.2967H101.39C101.757 83.2967 102.032 83.1745 102.215 82.93C102.399 82.6856 102.49 82.4411 102.49 82.1967V75.78C102.49 75.5356 102.399 75.2911 102.215 75.0467C102.032 74.8023 101.757 74.68 101.39 74.68H99.1902C99.068 71.9911 98.518 69.3634 97.5402 66.7967C96.5625 64.23 95.1569 61.9078 93.3236 59.83C91.0013 57.1411 88.2513 55.0634 85.0736 53.5967H93.8736V55.7967C93.8736 56.0411 93.9958 56.2856 94.2402 56.53C94.4847 56.7745 94.7291 56.8967 94.9736 56.8967ZM53.9069 54.6967H49.6902V50.48H53.9069V54.6967ZM53.9069 81.0967H49.6902V76.88H53.9069V81.0967ZM100.29 81.0967H96.0736V76.88H100.29V81.0967ZM77.1902 54.6967H72.7902V50.48H77.1902V54.6967ZM96.0736 50.48H100.29V54.6967H96.0736V50.48ZM75.9069 60.1967C75.6625 59.83 75.3569 59.6467 74.9902 59.6467C74.6236 59.6467 74.318 59.83 74.0736 60.1967L69.6736 68.2634C69.4291 68.5078 69.368 68.7828 69.4902 69.0884C69.6125 69.3939 69.7958 69.6078 70.0402 69.73C70.2847 69.8523 70.5597 69.8828 70.8652 69.8217C71.1708 69.7606 71.3847 69.5467 71.5069 69.18L73.8902 64.78V72.6634C73.1569 72.9078 72.5458 73.3661 72.0569 74.0384C71.568 74.7106 71.3236 75.505 71.3236 76.4217C71.3236 77.3384 71.6902 78.1328 72.4236 78.805C73.1569 79.4773 74.0125 79.8134 74.9902 79.8134C75.968 79.8134 76.8236 79.4773 77.5569 78.805C78.2902 78.1328 78.6569 77.3384 78.6569 76.4217C78.6569 75.505 78.4125 74.7106 77.9236 74.0384C77.4347 73.3661 76.8236 72.9078 76.0902 72.6634V64.78L83.4236 78.1634C80.9791 80.73 79.3902 83.7245 78.6569 87.1467H71.3236C70.5902 83.7245 69.0013 80.73 66.5569 78.1634L67.8402 75.9634C67.9625 75.7189 67.9625 75.4439 67.8402 75.1384C67.718 74.8328 67.5347 74.6189 67.2902 74.4967C67.0458 74.3745 66.8013 74.3439 66.5569 74.405C66.3125 74.4661 66.068 74.6189 65.8236 74.8634L64.3569 77.7967C63.9902 78.2856 64.0513 78.7745 64.5402 79.2634C66.8625 81.3411 68.3902 83.9689 69.1236 87.1467H68.0236C67.168 87.1467 66.4347 87.4523 65.8236 88.0634C65.2125 88.6745 64.9069 89.4689 64.9069 90.4467C64.9069 91.0578 65.0597 91.6078 65.3652 92.0967C65.6708 92.5856 66.068 92.9523 66.5569 93.1967V102.18C66.5569 102.547 66.6791 102.822 66.9236 103.005C67.168 103.188 67.443 103.28 67.7486 103.28C68.0541 103.28 68.2986 103.188 68.4819 103.005C68.6652 102.822 68.7569 102.547 68.7569 102.18V93.5634H81.2236V102.18C81.2236 102.547 81.3152 102.822 81.4986 103.005C81.6819 103.188 81.9263 103.28 82.2319 103.28C82.5375 103.28 82.8125 103.188 83.0569 103.005C83.3013 102.822 83.4236 102.547 83.4236 102.18V93.1967C83.9125 92.9523 84.3097 92.5856 84.6152 92.0967C84.9208 91.6078 85.0736 91.0578 85.0736 90.4467C85.0736 89.4689 84.768 88.6745 84.1569 88.0634C83.5458 87.4523 82.8125 87.1467 81.9569 87.1467H80.8569C81.5902 83.9689 83.118 81.3411 85.4402 79.2634C85.9291 78.7745 85.9902 78.2856 85.6236 77.7967L75.9069 60.1967ZM74.9902 77.7967C74.6236 77.7967 74.2875 77.6439 73.9819 77.3384C73.6763 77.0328 73.5236 76.6661 73.5236 76.2384C73.5236 75.8106 73.6763 75.4439 73.9819 75.1384C74.2875 74.8328 74.6236 74.68 74.9902 74.68C75.3569 74.68 75.693 74.8328 75.9986 75.1384C76.3041 75.4439 76.4569 75.8106 76.4569 76.2384C76.4569 76.6661 76.3041 77.0328 75.9986 77.3384C75.693 77.6439 75.3569 77.7967 74.9902 77.7967ZM83.0569 90.4467C83.0569 90.6911 82.9347 90.9356 82.6902 91.18C82.4458 91.4245 82.2013 91.5467 81.9569 91.5467H68.0236C67.7791 91.5467 67.5347 91.4245 67.2902 91.18C67.0458 90.9356 66.9236 90.6606 66.9236 90.355C66.9236 90.0495 67.0458 89.805 67.2902 89.6217C67.5347 89.4384 67.7791 89.3467 68.0236 89.3467H81.9569C82.2013 89.3467 82.4458 89.4384 82.6902 89.6217C82.9347 89.805 83.0569 90.08 83.0569 90.4467ZM68.5736 73.2134C68.9402 73.2134 69.2152 73.1217 69.3986 72.9384C69.5819 72.755 69.6736 72.5106 69.6736 72.205C69.6736 71.8995 69.5819 71.6245 69.3986 71.38C69.2152 71.1356 68.9708 71.0134 68.6652 71.0134C68.3597 71.0134 68.0847 71.1356 67.8402 71.38C67.5958 71.6245 67.4736 71.8995 67.4736 72.205C67.4736 72.5106 67.5958 72.755 67.8402 72.9384C68.0847 73.1217 68.3291 73.2134 68.5736 73.2134Z" fill="#7F7E97"/>
</g>
<g filter="url(#filter0_d_6512_1853)">
<g clip-path="url(#clip1_6512_1853)">
<g clip-path="url(#clip2_6512_1853)">
<path d="M123 41.2034C122.494 41.5803 122.241 41.9572 121.987 42.0829C120.722 42.5855 119.456 43.088 118.19 43.5906C116.291 44.2188 115.152 45.4753 114.899 47.4856C114.646 49.119 114.392 50.7524 114.013 52.3858C113.886 52.8883 113.506 53.6422 113.127 53.7679C112.367 53.8935 112.367 53.014 112.24 52.5114C111.734 51.0037 111.228 49.3703 110.848 47.8625C110.215 45.7266 108.823 44.5958 106.544 44.5958C105.658 44.5958 104.899 44.4701 104.013 44.3445C103.506 44.3445 103.253 44.0932 103 43.8419C103.253 43.5906 103.38 43.2137 103.633 43.088C104.899 42.5855 106.291 42.0829 107.557 41.7059C108.823 41.329 109.709 40.4495 109.962 39.193C110.468 37.1828 110.848 35.1724 111.354 33.2878C111.608 32.6595 111.354 31.78 112.24 31.78C113.127 31.78 113 32.5339 113.127 33.0365C113.506 34.7955 113.886 36.4289 114.392 38.1879C115.025 40.4495 115.532 40.8264 117.937 40.8264C119.203 40.8264 120.595 40.7008 121.861 40.7008C121.987 40.7008 122.367 40.9521 123 41.2034Z" fill="#CECCFD"/>
<path d="M103 32.4917C102.747 32.6802 102.62 32.8686 102.494 32.9315C101.861 33.1828 101.228 33.434 100.595 33.6853C99.6456 33.9994 99.0759 34.6277 98.9494 35.6328C98.8228 36.4495 98.6962 37.2662 98.5063 38.0829C98.443 38.3342 98.2532 38.7111 98.0633 38.7739C97.6835 38.8368 97.6835 38.397 97.6203 38.1457C97.3671 37.3919 97.1139 36.5752 96.9241 35.8213C96.6076 34.7533 95.9114 34.1879 94.7722 34.1879C94.3291 34.1879 93.9494 34.1251 93.5063 34.0623C93.2532 34.0623 93.1266 33.9366 93 33.811C93.1266 33.6853 93.1899 33.4969 93.3165 33.434C93.9494 33.1828 94.6456 32.9315 95.2785 32.743C95.9114 32.5545 96.3544 32.1148 96.481 31.4865C96.7342 30.4814 96.924 29.4762 97.1772 28.5339C97.3038 28.2198 97.1772 27.78 97.6203 27.78C98.0633 27.78 98 28.157 98.0633 28.4083C98.2532 29.2878 98.443 30.1045 98.6962 30.984C99.0127 32.1148 99.2658 32.3032 100.468 32.3032C101.101 32.3032 101.797 32.2404 102.43 32.2404C102.494 32.2404 102.684 32.3661 103 32.4917Z" fill="#CECCFD"/>
</g>
</g>
</g>
<defs>
<filter id="filter0_d_6512_1853" x="89" y="27.78" width="38" height="34" filterUnits="userSpaceOnUse" color-interpolation-filters="sRGB">
<feFlood flood-opacity="0" result="BackgroundImageFix"/>
<feColorMatrix in="SourceAlpha" type="matrix" values="0 0 0 0 0 0 0 0 0 0 0 0 0 0 0 0 0 0 127 0" result="hardAlpha"/>
<feOffset dy="4"/>
<feGaussianBlur stdDeviation="2"/>
<feComposite in2="hardAlpha" operator="out"/>
<feColorMatrix type="matrix" values="0 0 0 0 0 0 0 0 0 0 0 0 0 0 0 0 0 0 0.25 0"/>
<feBlend mode="normal" in2="BackgroundImageFix" result="effect1_dropShadow_6512_1853"/>
<feBlend mode="normal" in="SourceGraphic" in2="effect1_dropShadow_6512_1853" result="shape"/>
</filter>
<linearGradient id="paint0_linear_6512_1853" x1="75" y1="0.780029" x2="75" y2="150.78" gradientUnits="userSpaceOnUse">
<stop stop-color="white"/>
<stop offset="1" stop-color="#F1F1FA"/>
</linearGradient>
<clipPath id="clip0_6512_1853">
<rect width="55.02" height="55" fill="white" transform="matrix(1 0 0 -1 47.4805 103.28)"/>
</clipPath>
<clipPath id="clip1_6512_1853">
<rect width="30" height="26" fill="white" transform="translate(93 27.78)"/>
</clipPath>
<clipPath id="clip2_6512_1853">
<rect width="30" height="26" fill="white" transform="translate(93 27.78)"/>
</clipPath>
</defs>
</svg>
