<svg width="150" height="151" viewBox="0 0 150 151" fill="none" xmlns="http://www.w3.org/2000/svg">
<rect x="0.5" y="1.28003" width="149" height="149" rx="74.5" fill="url(#paint0_linear_6512_1897)"/>
<rect x="0.5" y="1.28003" width="149" height="149" rx="74.5" stroke="#C9C9DD"/>
<g clip-path="url(#clip0_6512_1897)">
<path d="M100.29 65.1467C99.6791 64.2911 98.9458 63.6189 98.0902 63.13C97.2347 62.6411 96.318 62.3967 95.3402 62.3967H94.9736L86.5402 76.33V67.7134C86.5402 64.2911 85.6541 61.0828 83.8819 58.0884C82.1097 55.0939 79.7263 52.7106 76.7319 50.9384C73.7375 49.1661 70.4986 48.28 67.0152 48.28C63.5319 48.28 60.293 49.1661 57.2986 50.9384C54.3041 52.7106 51.9208 55.0939 50.1486 58.0884C48.3763 61.0828 47.4902 64.2911 47.4902 67.7134V89.8967C47.4902 90.63 47.7652 91.2717 48.3152 91.8217C48.8652 92.3717 49.5069 92.6467 50.2402 92.6467H64.1736C62.218 93.6245 60.1402 94.3578 57.9402 94.8467C57.2069 95.0911 56.6263 95.4884 56.1986 96.0384C55.7708 96.5884 55.5569 97.23 55.5569 97.9634C55.5569 98.6967 55.7402 99.3689 56.1069 99.98C56.8402 101.08 57.7875 101.905 58.9486 102.455C60.1097 103.005 61.3625 103.28 62.7069 103.28H77.3736C78.4736 103.28 79.4819 103.036 80.3986 102.547C81.3152 102.058 82.0791 101.386 82.6902 100.53C84.0347 98.4523 85.1347 96.3134 85.9902 94.1134L86.5402 92.6467C87.0291 91.0578 87.7013 89.5911 88.5569 88.2467L90.3902 85.13C90.5125 84.7634 90.6958 84.58 90.9402 84.58C91.1847 84.58 91.3986 84.6717 91.5819 84.855C91.7652 85.0384 91.8569 85.2523 91.8569 85.4967V103.28H97.1736V95.3967C97.1736 93.0745 97.418 90.6911 97.9069 88.2467V88.0634C98.518 84.7634 99.5569 81.6467 101.024 78.7134C102.001 76.88 102.49 74.9245 102.49 72.8467V72.48C102.49 69.7911 101.757 67.3467 100.29 65.1467ZM66.9236 50.1134C70.2236 50.1134 73.218 50.9078 75.9069 52.4967C78.5958 54.0856 80.7347 56.2245 82.3236 58.9134C83.9125 61.6022 84.7069 64.5356 84.7069 67.7134H83.0569C83.0569 64.9023 82.3236 62.2745 80.8569 59.83C79.3902 57.3856 77.4347 55.43 74.9902 53.9634C72.5458 52.4967 69.8875 51.7634 67.0152 51.7634C64.143 51.7634 61.4847 52.4967 59.0402 53.9634C56.5958 55.43 54.6402 57.3856 53.1736 59.83C51.7069 62.2745 50.9736 64.9023 50.9736 67.7134H49.3236C49.3236 64.5356 50.118 61.6022 51.7069 58.9134C53.2958 56.2245 55.4347 54.0856 58.1236 52.4967C60.8125 50.9078 63.7458 50.1134 66.9236 50.1134ZM81.2236 67.7134H52.8069C52.8069 65.1467 53.4486 62.7939 54.7319 60.655C56.0152 58.5161 57.7263 56.805 59.8652 55.5217C62.0041 54.2384 64.3569 53.5967 66.9236 53.5967C69.4902 53.5967 71.8736 54.2384 74.0736 55.5217C76.2736 56.805 78.0152 58.5161 79.2986 60.655C80.5819 62.7939 81.2236 65.1467 81.2236 67.7134ZM49.3236 69.5467H84.7069V75.9634L72.2402 79.08V74.8634H61.6069V79.08L49.3236 75.9634V69.5467ZM63.4402 78.53V76.6967H70.5902V78.53H63.4402ZM70.5902 80.18V82.93C70.5902 83.1745 70.4986 83.3884 70.3152 83.5717C70.1319 83.755 69.918 83.8467 69.6736 83.8467H64.3569C64.1125 83.8467 63.8986 83.755 63.7152 83.5717C63.5319 83.3884 63.4402 83.1745 63.4402 82.93V80.18H70.5902ZM50.2402 90.8134C49.9958 90.8134 49.7819 90.7217 49.5986 90.5384C49.4152 90.355 49.3236 90.1411 49.3236 89.8967V77.7967L61.6069 80.9134V82.93C61.6069 83.6634 61.8819 84.2745 62.4319 84.7634C62.9819 85.2523 63.6236 85.4967 64.3569 85.4967H69.6736C70.4069 85.4967 71.018 85.2523 71.5069 84.7634C71.9958 84.2745 72.2402 83.6634 72.2402 82.93V80.9134L84.7069 77.7967V79.2634L83.4236 81.4634C82.0791 83.7856 80.4291 85.9245 78.4736 87.88C77.1291 89.2245 75.418 89.8967 73.3402 89.8967C72.2402 89.8967 71.1402 89.6523 70.0402 89.1634L69.4902 88.98L66.9236 90.9967L50.2402 90.8134ZM91.3069 82.93H91.1236C90.0236 82.93 89.2291 83.3578 88.7402 84.2134L86.9069 87.33C86.1736 88.7967 85.5013 90.3245 84.8902 91.9134L83.4236 95.3967C81.2236 96.7411 78.9013 97.7189 76.4569 98.33C74.868 98.6967 73.218 98.88 71.5069 98.88H63.4402V100.53H71.5069C73.3402 100.53 75.1125 100.347 76.8236 99.98C78.5347 99.6134 80.2458 99.0023 81.9569 98.1467L81.2236 99.6134C80.7347 100.224 80.1847 100.683 79.5736 100.988C78.9625 101.294 78.2291 101.447 77.3736 101.447H62.7069C61.6069 101.447 60.5069 101.141 59.4069 100.53H61.6069V98.88H57.5736C57.3291 98.6356 57.2069 98.3606 57.2069 98.055C57.2069 97.7495 57.3291 97.4439 57.5736 97.1384C57.818 96.8328 58.0625 96.68 58.3069 96.68C62.5847 95.7023 66.3736 93.8078 69.6736 90.9967H69.8569C70.9569 91.4856 72.118 91.73 73.3402 91.73C75.9069 91.73 78.0458 90.8745 79.7569 89.1634C81.8347 87.0856 83.5458 84.8245 84.8902 82.38L95.8902 64.23C97.1125 64.3522 98.0902 64.9634 98.8236 66.0634C99.6791 67.4078 100.229 68.8745 100.474 70.4634C97.0513 74.3745 93.9958 78.53 91.3069 82.93ZM99.5569 77.98C97.968 81.0356 96.868 84.2745 96.2569 87.6967L96.0736 87.88C95.5847 90.4467 95.3402 92.9523 95.3402 95.3967V101.447H93.6902V85.4967C93.6902 84.7634 93.4458 84.1523 92.9569 83.6634C95.1569 79.9967 97.7236 76.4523 100.657 73.03C100.657 74.7411 100.29 76.3911 99.5569 77.98Z" fill="#7F7E97"/>
</g>
<g clip-path="url(#clip1_6512_1897)">
<g clip-path="url(#clip2_6512_1897)">
<path d="M123 41.2034C122.494 41.5803 122.241 41.9572 121.987 42.0829C120.722 42.5855 119.456 43.088 118.19 43.5906C116.291 44.2188 115.152 45.4753 114.899 47.4856C114.646 49.119 114.392 50.7524 114.013 52.3858C113.886 52.8883 113.506 53.6422 113.127 53.7679C112.367 53.8935 112.367 53.014 112.24 52.5114C111.734 51.0037 111.228 49.3703 110.848 47.8625C110.215 45.7266 108.823 44.5958 106.544 44.5958C105.658 44.5958 104.899 44.4701 104.013 44.3445C103.506 44.3445 103.253 44.0932 103 43.8419C103.253 43.5906 103.38 43.2137 103.633 43.088C104.899 42.5855 106.291 42.0829 107.557 41.7059C108.823 41.329 109.709 40.4495 109.962 39.193C110.468 37.1828 110.848 35.1724 111.354 33.2878C111.608 32.6595 111.354 31.78 112.24 31.78C113.127 31.78 113 32.5339 113.127 33.0365C113.506 34.7955 113.886 36.4289 114.392 38.1879C115.025 40.4495 115.532 40.8264 117.937 40.8264C119.203 40.8264 120.595 40.7008 121.861 40.7008C121.987 40.7008 122.367 40.9521 123 41.2034Z" fill="#CECCFD"/>
<path d="M103 32.4917C102.747 32.6802 102.62 32.8686 102.494 32.9315C101.861 33.1828 101.228 33.434 100.595 33.6853C99.6456 33.9994 99.0759 34.6277 98.9494 35.6328C98.8228 36.4495 98.6962 37.2662 98.5063 38.0829C98.443 38.3342 98.2532 38.7111 98.0633 38.7739C97.6835 38.8368 97.6835 38.397 97.6203 38.1457C97.3671 37.3919 97.1139 36.5752 96.9241 35.8213C96.6076 34.7533 95.9114 34.1879 94.7722 34.1879C94.3291 34.1879 93.9494 34.1251 93.5063 34.0623C93.2532 34.0623 93.1266 33.9366 93 33.811C93.1266 33.6853 93.1899 33.4969 93.3165 33.434C93.9494 33.1828 94.6456 32.9315 95.2785 32.743C95.9114 32.5545 96.3544 32.1148 96.481 31.4865C96.7342 30.4814 96.924 29.4762 97.1772 28.5339C97.3038 28.2198 97.1772 27.78 97.6203 27.78C98.0633 27.78 98 28.157 98.0633 28.4083C98.2532 29.2878 98.443 30.1045 98.6962 30.984C99.0127 32.1148 99.2658 32.3032 100.468 32.3032C101.101 32.3032 101.797 32.2404 102.43 32.2404C102.494 32.2404 102.684 32.3661 103 32.4917Z" fill="#CECCFD"/>
</g>
</g>
<defs>
<linearGradient id="paint0_linear_6512_1897" x1="75" y1="0.780029" x2="75" y2="150.78" gradientUnits="userSpaceOnUse">
<stop stop-color="white"/>
<stop offset="1" stop-color="#F1F1FA"/>
</linearGradient>
<clipPath id="clip0_6512_1897">
<rect width="55.02" height="55" fill="white" transform="matrix(1 0 0 -1 47.4805 103.28)"/>
</clipPath>
<clipPath id="clip1_6512_1897">
<rect width="30" height="26" fill="white" transform="translate(93 27.78)"/>
</clipPath>
<clipPath id="clip2_6512_1897">
<rect width="30" height="26" fill="white" transform="translate(93 27.78)"/>
</clipPath>
</defs>
</svg>
