<svg width="150" height="151" viewBox="0 0 150 151" fill="none" xmlns="http://www.w3.org/2000/svg">
<rect x="0.5" y="1.28003" width="149" height="149" rx="74.5" fill="url(#paint0_linear_6512_1908)"/>
<rect x="0.5" y="1.28003" width="149" height="149" rx="74.5" stroke="#C9C9DD"/>
<g clip-path="url(#clip0_6512_1908)">
<path d="M88.0986 96.3133C87.7319 96.3133 87.4875 96.1911 87.3652 95.9467C86.8763 95.0911 86.2041 94.48 85.3486 94.1133L81.4986 92.4633C81.2541 92.4633 81.1013 92.3411 81.0402 92.0967C80.9791 91.8522 80.9791 91.6078 81.0402 91.3633C81.1013 91.1189 81.2541 90.9661 81.4986 90.905C81.743 90.8439 81.9875 90.8744 82.2319 90.9967L85.8986 92.4633C87.1208 93.0744 88.0986 93.93 88.8319 95.03C88.9541 95.2744 88.9847 95.5189 88.9236 95.7633C88.8625 96.0078 88.7402 96.1606 88.5569 96.2217C88.3736 96.2828 88.2208 96.3133 88.0986 96.3133ZM70.4986 96.3133C70.3763 96.3133 70.2236 96.2828 70.0402 96.2217C69.8569 96.1606 69.7347 96.0078 69.6736 95.7633C69.6125 95.5189 69.643 95.2744 69.7652 95.03C70.3763 93.93 71.293 93.0744 72.5152 92.4633L76.3652 90.9967C76.6097 90.8744 76.8236 90.8439 77.0069 90.905C77.1902 90.9661 77.343 91.1189 77.4652 91.3633C77.5875 91.6078 77.5875 91.8217 77.4652 92.005C77.343 92.1883 77.2208 92.3411 77.0986 92.4633L73.2486 94.1133C72.393 94.48 71.7208 95.0911 71.2319 95.9467C70.9875 96.1911 70.743 96.3133 70.4986 96.3133ZM81.8652 92.4633C81.6208 92.4633 81.4069 92.3717 81.2236 92.1883C81.0402 92.005 80.9486 91.7911 80.9486 91.5467V88.6133C80.9486 88.3689 81.0708 88.1244 81.3152 87.88C82.1708 87.2689 82.5986 86.4133 82.5986 85.3133V82.5633C82.5986 81.7078 82.2625 80.9439 81.5902 80.2717C80.918 79.5994 80.1236 79.2633 79.2069 79.2633C78.2902 79.2633 77.4958 79.5994 76.8236 80.2717C76.1513 80.9439 75.8152 81.7078 75.8152 82.5633V85.3133C75.8152 86.4133 76.243 87.2689 77.0986 87.88C77.343 88.1244 77.4652 88.3689 77.4652 88.6133V91.5467C77.4652 91.7911 77.4041 92.005 77.2819 92.1883C77.1597 92.3717 76.9763 92.4633 76.7319 92.4633C76.4875 92.4633 76.2736 92.3717 76.0902 92.1883C75.9069 92.005 75.8152 91.7911 75.8152 91.5467V88.98C74.7152 88.0022 74.1652 86.78 74.1652 85.3133V82.5633C74.1652 81.2189 74.6541 80.0272 75.6319 78.9883C76.6097 77.9494 77.8013 77.43 79.2069 77.43C80.6125 77.43 81.8347 77.9494 82.8736 78.9883C83.9125 80.0272 84.4319 81.2189 84.4319 82.5633V85.3133C84.4319 86.78 83.8208 88.0022 82.5986 88.98V91.5467C82.5986 91.7911 82.5375 92.005 82.4152 92.1883C82.293 92.3717 82.1097 92.4633 81.8652 92.4633ZM80.0319 90.2633C79.6652 90.2633 79.4208 90.1106 79.2986 89.805C79.1763 89.4994 79.2069 89.2244 79.3902 88.98C79.5736 88.7356 79.7263 88.6133 79.8486 88.6133C80.7041 88.4911 81.3763 88.0939 81.8652 87.4217C82.3541 86.7494 82.5986 86.0467 82.5986 85.3133C82.5986 85.0689 82.6902 84.855 82.8736 84.6717C83.0569 84.4883 83.2708 84.3967 83.5152 84.3967C83.7597 84.3967 83.9736 84.4883 84.1569 84.6717C84.3402 84.855 84.4319 85.0689 84.4319 85.3133C84.4319 86.5356 84.0347 87.605 83.2402 88.5217C82.4458 89.4383 81.4375 90.0189 80.2152 90.2633H80.0319ZM75.9986 75.78C75.6319 75.78 75.3875 75.6578 75.2652 75.4133C74.7763 74.5578 74.1041 73.9467 73.2486 73.58L69.3986 71.93C69.2763 71.8078 69.1541 71.6244 69.0319 71.38C68.9097 71.1356 68.9097 70.9217 69.0319 70.7383C69.1541 70.555 69.3069 70.4022 69.4902 70.28C69.6736 70.1578 69.8875 70.1578 70.1319 70.28L73.9819 71.93C75.2041 72.4189 76.1208 73.2744 76.7319 74.4967C76.8541 74.7411 76.8847 74.955 76.8236 75.1383C76.7625 75.3217 76.6402 75.4744 76.4569 75.5967C76.2736 75.7189 76.1208 75.78 75.9986 75.78ZM58.3986 75.78C58.2763 75.78 58.1236 75.7189 57.9402 75.5967C57.7569 75.4744 57.6347 75.3217 57.5736 75.1383C57.5125 74.955 57.543 74.7411 57.6652 74.4967C58.3986 73.2744 59.3763 72.4189 60.5986 71.93L64.2652 70.28C64.5097 70.1578 64.7541 70.1578 64.9986 70.28C65.243 70.4022 65.3958 70.555 65.4569 70.7383C65.518 70.9217 65.518 71.1356 65.4569 71.38C65.3958 71.6244 65.243 71.8078 64.9986 71.93L61.1486 73.58C60.293 73.9467 59.6208 74.5578 59.1319 75.4133C59.0097 75.6578 58.7652 75.78 58.3986 75.78ZM69.7652 71.7467C69.5208 71.7467 69.3069 71.6856 69.1236 71.5633C68.9402 71.4411 68.8486 71.2578 68.8486 71.0133V68.08C68.8486 67.7133 68.9708 67.4689 69.2152 67.3467C70.193 66.6133 70.6819 65.6967 70.6819 64.5967V62.03C70.6819 61.0522 70.3458 60.2272 69.6736 59.555C69.0013 58.8828 68.1763 58.5467 67.1986 58.5467C66.2208 58.5467 65.3958 58.8828 64.7236 59.555C64.0513 60.2272 63.7152 61.0522 63.7152 62.03V64.5967C63.7152 65.6967 64.2041 66.6133 65.1819 67.3467C65.4263 67.4689 65.5486 67.7133 65.5486 68.08V71.0133C65.5486 71.2578 65.4569 71.4411 65.2736 71.5633C65.0902 71.6856 64.8763 71.7467 64.6319 71.7467C64.3875 71.7467 64.1736 71.6856 63.9902 71.5633C63.8069 71.4411 63.7152 71.2578 63.7152 71.0133V68.4467C62.6152 67.4689 62.0652 66.1856 62.0652 64.5967V62.03C62.0652 60.5633 62.5541 59.3411 63.5319 58.3633C64.5097 57.3856 65.7319 56.8967 67.1986 56.8967C68.6652 56.8967 69.8875 57.3856 70.8652 58.3633C71.843 59.3411 72.3319 60.5633 72.3319 62.03V64.5967C72.3319 66.1856 71.7819 67.4689 70.6819 68.4467V71.0133C70.6819 71.2578 70.5902 71.4411 70.4069 71.5633C70.2236 71.6856 70.0097 71.7467 69.7652 71.7467ZM68.1152 69.73C67.6263 69.73 67.3513 69.5467 67.2902 69.18C67.2291 68.8133 67.2597 68.5383 67.3819 68.355C67.5041 68.1717 67.6875 68.0189 67.9319 67.8967C68.6652 67.7744 69.3069 67.4078 69.8569 66.7967C70.4069 66.1856 70.6819 65.4522 70.6819 64.5967C70.6819 64.3522 70.7736 64.1383 70.9569 63.955C71.1402 63.7717 71.3541 63.68 71.5986 63.68C71.843 63.68 72.0263 63.7717 72.1486 63.955C72.2708 64.1383 72.3319 64.3522 72.3319 64.5967C72.3319 65.8189 71.9652 66.9189 71.2319 67.8967C70.4986 68.8744 69.5208 69.4856 68.2986 69.73H68.1152ZM67.1986 79.2633C64.7541 79.2633 62.4625 78.6522 60.3236 77.43C58.1847 76.2078 56.5041 74.5272 55.2819 72.3883C54.0597 70.2494 53.4486 67.9272 53.4486 65.4217C53.4486 62.9161 54.0597 60.6244 55.2819 58.5467C56.5041 56.4689 58.1847 54.8189 60.3236 53.5967C62.4625 52.3744 64.7541 51.7633 67.1986 51.7633C69.643 51.7633 71.9347 52.3744 74.0736 53.5967C76.2125 54.8189 77.893 56.4689 79.1152 58.5467C80.3375 60.6244 80.9486 62.9161 80.9486 65.4217C80.9486 67.9272 80.3375 70.2494 79.1152 72.3883C77.893 74.5272 76.2125 76.2078 74.0736 77.43C71.9347 78.6522 69.643 79.2633 67.1986 79.2633ZM67.1986 53.4133C64.9986 53.4133 62.9819 53.9633 61.1486 55.0633C59.3152 56.1633 57.8486 57.63 56.7486 59.4633C55.6486 61.2967 55.0986 63.3133 55.0986 65.5133C55.0986 67.7133 55.6486 69.73 56.7486 71.5633C57.8486 73.3967 59.3152 74.8328 61.1486 75.8717C62.9819 76.9106 64.9986 77.43 67.1986 77.43C69.3986 77.43 71.4152 76.9106 73.2486 75.8717C75.0819 74.8328 76.5486 73.3967 77.6486 71.5633C78.7486 69.73 79.2986 67.7133 79.2986 65.5133C79.2986 63.3133 78.7486 61.2967 77.6486 59.4633C76.5486 57.63 75.0819 56.1633 73.2486 55.0633C71.4152 53.9633 69.3986 53.4133 67.1986 53.4133ZM89.9319 57.8133C89.443 57.8133 89.1375 57.6606 89.0152 57.355C88.893 57.0494 88.893 56.805 89.0152 56.6217C89.1375 56.4383 89.3208 56.2856 89.5652 56.1633C90.0541 55.9189 90.4208 56.0411 90.6652 56.53V56.7133C90.7875 56.9578 90.7875 57.1717 90.6652 57.355C90.543 57.5383 90.3597 57.6911 90.1152 57.8133H89.9319ZM62.0652 101.63C59.2541 101.63 56.8402 100.622 54.8236 98.605C52.8069 96.5883 51.7986 94.1133 51.7986 91.18V87.88H48.3152C47.9486 87.88 47.7041 87.7272 47.5819 87.4217C47.4597 87.1161 47.4597 86.78 47.5819 86.4133L53.6319 77.0633C53.7541 76.8189 53.9986 76.6967 54.3652 76.6967C54.7319 76.6967 54.9763 76.8189 55.0986 77.0633L61.1486 86.4133C61.2708 86.78 61.2402 87.1161 61.0569 87.4217C60.8736 87.7272 60.6597 87.88 60.4152 87.88H56.9319V91.18C56.9319 91.4244 56.8402 91.6383 56.6569 91.8217C56.4736 92.005 56.2597 92.0967 56.0152 92.0967C55.7708 92.0967 55.5875 92.005 55.4652 91.8217C55.343 91.6383 55.2819 91.4244 55.2819 91.18V86.9633C55.2819 86.7189 55.343 86.505 55.4652 86.3217C55.5875 86.1383 55.7708 86.0467 56.0152 86.0467H58.7652L54.3652 79.08L49.9652 86.0467H52.7152C52.8375 86.0467 52.9902 86.1383 53.1736 86.3217C53.3569 86.505 53.4486 86.7189 53.4486 86.9633V91.18C53.4486 93.6244 54.3041 95.6717 56.0152 97.3217C57.7263 98.9717 59.743 99.7967 62.0652 99.7967C64.0208 99.7967 65.793 99.1856 67.3819 97.9633C67.6263 97.8411 67.8708 97.78 68.1152 97.78C68.3597 97.78 68.543 97.8717 68.6652 98.055C68.7875 98.2383 68.8486 98.4522 68.8486 98.6967C68.8486 98.9411 68.7875 99.1244 68.6652 99.2467L68.4819 99.43C66.6486 100.897 64.5097 101.63 62.0652 101.63ZM56.5652 95.58C56.3208 95.58 56.0763 95.3967 55.8319 95.03V94.8467C55.7097 94.6022 55.7097 94.3883 55.8319 94.205C55.9541 94.0217 56.1375 93.8689 56.3819 93.7467C56.6263 93.6244 56.8402 93.6244 57.0236 93.7467C57.2069 93.8689 57.3291 94.0522 57.3902 94.2967C57.4513 94.5411 57.4513 94.755 57.3902 94.9383C57.3291 95.1217 57.1763 95.2744 56.9319 95.3967L56.5652 95.58ZM92.1319 74.8633C91.8875 74.8633 91.643 74.7411 91.3986 74.4967L85.3486 65.1467C85.2263 64.78 85.2569 64.4439 85.4402 64.1383C85.6236 63.8328 85.8375 63.68 86.0819 63.68H89.5652V60.38C89.5652 60.1356 89.6569 59.9217 89.8402 59.7383C90.0236 59.555 90.2375 59.4633 90.4819 59.4633C90.7263 59.4633 90.9097 59.555 91.0319 59.7383C91.1541 59.9217 91.2152 60.1356 91.2152 60.38V64.5967C91.2152 64.8411 91.1541 65.055 91.0319 65.2383C90.9097 65.4217 90.7263 65.5133 90.4819 65.5133H87.7319L92.1319 72.48L96.5319 65.5133H93.9652C93.7208 65.5133 93.5069 65.4217 93.3236 65.2383C93.1402 65.055 93.0486 64.8411 93.0486 64.5967V60.38C93.0486 57.9356 92.193 55.8883 90.4819 54.2383C88.7708 52.5883 86.7541 51.7633 84.4319 51.7633C82.3541 51.7633 80.5208 52.3744 78.9319 53.5967C78.8097 53.8411 78.6263 53.9328 78.3819 53.8717C78.1375 53.8106 77.9236 53.6883 77.7402 53.505C77.5569 53.3217 77.4958 53.1078 77.5569 52.8633C77.618 52.6189 77.7097 52.4356 77.8319 52.3133C79.7875 50.7244 81.9875 49.93 84.4319 49.93C87.243 49.93 89.6569 50.9383 91.6736 52.955C93.6902 54.9717 94.6986 57.4467 94.6986 60.38V63.68H98.1819C98.5486 63.68 98.793 63.8328 98.9152 64.1383C99.0375 64.4439 99.0375 64.78 98.9152 65.1467L92.8652 74.4967C92.743 74.7411 92.4986 74.8633 92.1319 74.8633ZM79.2986 99.7967C76.7319 99.7967 74.4097 99.1856 72.3319 97.9633C70.2541 96.7411 68.6041 95.0911 67.3819 93.0133C66.1597 90.9356 65.5486 88.6133 65.5486 86.0467C65.5486 84.4578 65.793 82.93 66.2819 81.4633C66.4041 81.3411 66.5569 81.2189 66.7402 81.0967C66.9236 80.9744 67.1375 80.9439 67.3819 81.005C67.6263 81.0661 67.7791 81.2189 67.8402 81.4633C67.9013 81.7078 67.9319 81.8911 67.9319 82.0133C67.443 83.3578 67.1986 84.7022 67.1986 86.0467C67.1986 88.2467 67.7486 90.2633 68.8486 92.0967C69.9486 93.93 71.4152 95.3967 73.2486 96.4967C75.0819 97.5967 77.0986 98.1467 79.2986 98.1467C81.4986 98.1467 83.5152 97.5967 85.3486 96.4967C87.1819 95.3967 88.618 93.93 89.6569 92.0967C90.6958 90.2633 91.2152 88.2467 91.2152 86.0467C91.2152 83.1133 90.2986 80.5467 88.4652 78.3467C86.6319 76.1467 84.3097 74.8022 81.4986 74.3133C81.2541 74.1911 81.0708 74.0383 80.9486 73.855C80.8263 73.6717 80.7652 73.4578 80.7652 73.2133C80.7652 72.9689 80.8875 72.7856 81.1319 72.6633C81.3763 72.5411 81.6208 72.5411 81.8652 72.6633C85.043 73.1522 87.7013 74.68 89.8402 77.2467C91.9791 79.8133 93.0486 82.7467 93.0486 86.0467C93.0486 88.6133 92.4375 90.9356 91.2152 93.0133C89.993 95.0911 88.3125 96.7411 86.1736 97.9633C84.0347 99.1856 81.743 99.7967 79.2986 99.7967Z" fill="#7F7E97"/>
</g>
<g clip-path="url(#clip1_6512_1908)">
<g clip-path="url(#clip2_6512_1908)">
<path d="M123 41.2034C122.494 41.5803 122.241 41.9572 121.987 42.0829C120.722 42.5855 119.456 43.088 118.19 43.5906C116.291 44.2188 115.152 45.4753 114.899 47.4856C114.646 49.119 114.392 50.7524 114.013 52.3858C113.886 52.8883 113.506 53.6422 113.127 53.7679C112.367 53.8935 112.367 53.014 112.24 52.5114C111.734 51.0037 111.228 49.3703 110.848 47.8625C110.215 45.7266 108.823 44.5958 106.544 44.5958C105.658 44.5958 104.899 44.4701 104.013 44.3445C103.506 44.3445 103.253 44.0932 103 43.8419C103.253 43.5906 103.38 43.2137 103.633 43.088C104.899 42.5855 106.291 42.0829 107.557 41.7059C108.823 41.329 109.709 40.4495 109.962 39.193C110.468 37.1828 110.848 35.1724 111.354 33.2878C111.608 32.6595 111.354 31.78 112.24 31.78C113.127 31.78 113 32.5339 113.127 33.0365C113.506 34.7955 113.886 36.4289 114.392 38.1879C115.025 40.4495 115.532 40.8264 117.937 40.8264C119.203 40.8264 120.595 40.7008 121.861 40.7008C121.987 40.7008 122.367 40.9521 123 41.2034Z" fill="#CECCFD"/>
<path d="M103 32.4917C102.747 32.6802 102.62 32.8686 102.494 32.9315C101.861 33.1828 101.228 33.434 100.595 33.6853C99.6456 33.9994 99.0759 34.6277 98.9494 35.6328C98.8228 36.4495 98.6962 37.2662 98.5063 38.0829C98.443 38.3342 98.2532 38.7111 98.0633 38.7739C97.6835 38.8368 97.6835 38.397 97.6203 38.1457C97.3671 37.3919 97.1139 36.5752 96.9241 35.8213C96.6076 34.7533 95.9114 34.1879 94.7722 34.1879C94.3291 34.1879 93.9494 34.1251 93.5063 34.0623C93.2532 34.0623 93.1266 33.9366 93 33.811C93.1266 33.6853 93.1899 33.4969 93.3165 33.434C93.9494 33.1828 94.6456 32.9315 95.2785 32.743C95.9114 32.5545 96.3544 32.1148 96.481 31.4865C96.7342 30.4814 96.924 29.4762 97.1772 28.5339C97.3038 28.2198 97.1772 27.78 97.6203 27.78C98.0633 27.78 98 28.157 98.0633 28.4083C98.2532 29.2878 98.443 30.1045 98.6962 30.984C99.0127 32.1148 99.2658 32.3032 100.468 32.3032C101.101 32.3032 101.797 32.2404 102.43 32.2404C102.494 32.2404 102.684 32.3661 103 32.4917Z" fill="#CECCFD"/>
</g>
</g>
<defs>
<linearGradient id="paint0_linear_6512_1908" x1="75" y1="0.780029" x2="75" y2="150.78" gradientUnits="userSpaceOnUse">
<stop stop-color="white"/>
<stop offset="1" stop-color="#F1F1FA"/>
</linearGradient>
<clipPath id="clip0_6512_1908">
<rect width="55.02" height="55" fill="white" transform="matrix(1 0 0 -1 47.4805 103.28)"/>
</clipPath>
<clipPath id="clip1_6512_1908">
<rect width="30" height="26" fill="white" transform="translate(93 27.78)"/>
</clipPath>
<clipPath id="clip2_6512_1908">
<rect width="30" height="26" fill="white" transform="translate(93 27.78)"/>
</clipPath>
</defs>
</svg>
