<svg width="150" height="151" viewBox="0 0 150 151" fill="none" xmlns="http://www.w3.org/2000/svg">
<rect x="0.5" y="1.28003" width="149" height="149" rx="74.5" fill="url(#paint0_linear_6512_1886)"/>
<rect x="0.5" y="1.28003" width="149" height="149" rx="74.5" stroke="#C9C9DD"/>
<g clip-path="url(#clip0_6512_1886)">
<path d="M69.4902 54.6967C69.2458 54.4522 69.0013 54.33 68.7569 54.33C68.5125 54.33 68.268 54.4217 68.0236 54.605C67.7791 54.7884 67.6569 55.0328 67.6569 55.3384C67.6569 55.6439 67.7791 55.9189 68.0236 56.1634C68.268 56.4078 68.5125 56.53 68.7569 56.53C69.0013 56.53 69.2458 56.4078 69.4902 56.1634C69.7347 55.9189 69.8569 55.6439 69.8569 55.3384C69.8569 55.0328 69.7347 54.8189 69.4902 54.6967ZM64.7236 54.33H60.5069C60.1402 54.33 59.8652 54.4217 59.6819 54.605C59.4986 54.7884 59.4069 55.0328 59.4069 55.3384C59.4069 55.6439 59.4986 55.9189 59.6819 56.1634C59.8652 56.4078 60.1402 56.53 60.5069 56.53H64.7236C65.0902 56.53 65.3652 56.4078 65.5486 56.1634C65.7319 55.9189 65.8236 55.6439 65.8236 55.3384C65.8236 55.0328 65.7319 54.7884 65.5486 54.605C65.3652 54.4217 65.0902 54.33 64.7236 54.33ZM65.6402 60.38H60.5069C60.1402 60.38 59.8652 60.4717 59.6819 60.655C59.4986 60.8384 59.4069 61.0828 59.4069 61.3884C59.4069 61.6939 59.4986 61.9384 59.6819 62.1217C59.8652 62.305 60.1402 62.3967 60.5069 62.3967H65.6402C65.8847 62.3967 66.1291 62.305 66.3736 62.1217C66.618 61.9384 66.7402 61.6939 66.7402 61.3884C66.7402 61.0828 66.618 60.8384 66.3736 60.655C66.1291 60.4717 65.8847 60.38 65.6402 60.38ZM102.124 70.6467L94.9736 65.1467V64.0467C94.9736 63.68 94.8819 63.405 94.6986 63.2217C94.5152 63.0384 94.2708 62.9467 93.9652 62.9467C93.6597 62.9467 93.3847 63.0384 93.1402 63.2217C92.8958 63.405 92.7736 63.68 92.7736 64.0467V78.53L83.9736 87.5134L82.8736 86.5967C81.2847 85.0078 79.3902 84.03 77.1902 83.6634L79.9402 80.9134C80.1847 80.6689 80.3069 80.3939 80.3069 80.0884C80.3069 79.7828 80.1847 79.5689 79.9402 79.4467L76.4569 75.78L92.2236 68.9967C92.468 68.8745 92.6513 68.63 92.7736 68.2634C92.8958 67.8967 92.7736 67.5911 92.4069 67.3467L87.2736 62.2134C87.7625 61.48 88.0069 60.6856 88.0069 59.83C88.0069 58.4856 87.5486 57.3856 86.6319 56.53C85.7152 55.6745 84.6458 55.2467 83.4236 55.2467C82.568 55.2467 81.7736 55.43 81.0402 55.7967L75.9069 50.6634C75.6625 50.4189 75.3569 50.3273 74.9902 50.3884C74.6236 50.4495 74.3791 50.6634 74.2569 51.03L66.9236 68.08L63.0736 71.93C61.9736 73.1523 61.4236 74.5578 61.4236 76.1467C61.4236 77.7356 61.9736 79.08 63.0736 80.18C64.1736 81.28 65.518 81.83 67.1069 81.83C68.6958 81.83 70.1013 81.28 71.3236 80.18L71.6902 79.8134L75.3569 83.48H74.9902C71.9347 83.48 69.3069 84.5189 67.1069 86.5967L66.0069 87.5134L57.2069 78.53V50.48H69.1236C69.4902 50.48 69.7652 50.3578 69.9486 50.1134C70.1319 49.8689 70.2236 49.5939 70.2236 49.2884C70.2236 48.9828 70.1319 48.7384 69.9486 48.555C69.7652 48.3717 69.4902 48.28 69.1236 48.28H56.1069C55.7402 48.28 55.4652 48.3717 55.2819 48.555C55.0986 48.7384 55.0069 49.0134 55.0069 49.38V64.9634L47.8569 70.6467C47.6125 70.8911 47.4902 71.1967 47.4902 71.5634V97.78C47.4902 99.2467 48.0402 100.53 49.1402 101.63C50.2402 102.73 51.5236 103.28 52.9902 103.28H96.9902C98.4569 103.28 99.7402 102.73 100.84 101.63C101.94 100.53 102.49 99.2467 102.49 97.78V71.5634C102.49 71.1967 102.368 70.8911 102.124 70.6467ZM94.9736 67.8967L99.7402 71.5634L94.9736 76.33V67.8967ZM83.4236 57.4467C84.1569 57.4467 84.7375 57.6606 85.1652 58.0884C85.593 58.5161 85.8069 59.0967 85.8069 59.83C85.8069 60.0745 85.8069 60.3189 85.8069 60.5634L82.6902 57.4467C82.9347 57.4467 83.1791 57.4467 83.4236 57.4467ZM75.5402 53.4134L80.3069 57.9967L89.8402 67.7134L87.6402 68.63L74.6236 55.6134L75.5402 53.4134ZM73.7069 57.8134L85.4402 69.5467L74.8069 74.13L69.1236 68.4467L73.7069 57.8134ZM69.6736 78.7134C68.9402 79.4467 68.0847 79.8134 67.1069 79.8134C66.1291 79.8134 65.2736 79.4467 64.5402 78.7134C63.8069 77.98 63.4402 77.0939 63.4402 76.055C63.4402 75.0161 63.8069 74.1911 64.5402 73.58L67.8402 70.28L72.9736 75.4134L69.6736 78.7134ZM73.1569 78.3467L74.4402 76.88L77.7402 80.18L76.4569 81.4634L73.1569 78.3467ZM55.0069 67.7134V76.33L50.2402 71.5634L55.0069 67.7134ZM51.5236 100.713C51.5236 100.713 51.4625 100.713 51.3402 100.713C50.8513 100.469 50.4541 100.072 50.1486 99.5217C49.843 98.9717 49.6902 98.3911 49.6902 97.78V74.13L64.5402 88.98L51.5236 100.713ZM54.0902 101.08L57.7569 97.9634H65.6402C65.8847 97.9634 66.1291 97.8411 66.3736 97.5967C66.618 97.3523 66.7402 97.0773 66.7402 96.7717C66.7402 96.4661 66.618 96.2217 66.3736 96.0384C66.1291 95.855 65.8847 95.7634 65.6402 95.7634H60.1402L68.5736 88.0634C70.4069 86.3523 72.5458 85.4967 74.9902 85.4967C77.4347 85.4967 79.5736 86.3523 81.4069 88.0634L95.8902 101.08H54.0902ZM100.29 97.78C100.29 98.3911 100.137 98.9717 99.8319 99.5217C99.5263 100.072 99.1291 100.469 98.6402 100.713L85.4402 88.98L100.29 74.13V97.78ZM94.7902 48.6467C94.5458 48.4022 94.2708 48.28 93.9652 48.28C93.6597 48.28 93.3847 48.4022 93.1402 48.6467L88.9236 53.0467C88.6791 53.1689 88.5569 53.3828 88.5569 53.6884C88.5569 53.9939 88.6486 54.2689 88.8319 54.5134C89.0152 54.7578 89.2597 54.88 89.5652 54.88C89.8708 54.88 90.1458 54.7578 90.3902 54.5134L94.7902 50.1134C94.9125 49.9911 94.9736 49.7773 94.9736 49.4717C94.9736 49.1661 94.9125 48.8911 94.7902 48.6467ZM85.6236 48.28C85.2569 48.28 84.9819 48.3717 84.7986 48.555C84.6152 48.7384 84.5236 49.0134 84.5236 49.38V51.58C84.5236 51.8245 84.6152 52.0384 84.7986 52.2217C84.9819 52.405 85.2263 52.4967 85.5319 52.4967C85.8375 52.4967 86.1125 52.405 86.3569 52.2217C86.6013 52.0384 86.7236 51.8245 86.7236 51.58V49.38C86.7236 49.0134 86.6013 48.7384 86.3569 48.555C86.1125 48.3717 85.868 48.28 85.6236 48.28ZM94.0569 56.53H91.6736C91.4291 56.53 91.2152 56.6522 91.0319 56.8967C90.8486 57.1411 90.7569 57.4161 90.7569 57.7217C90.7569 58.0273 90.8486 58.2717 91.0319 58.455C91.2152 58.6384 91.4291 58.73 91.6736 58.73H94.0569C94.3013 58.73 94.5152 58.6384 94.6986 58.455C94.8819 58.2717 94.9736 58.0273 94.9736 57.7217C94.9736 57.4161 94.8819 57.1411 94.6986 56.8967C94.5152 56.6522 94.3013 56.53 94.0569 56.53ZM70.7736 96.13C70.5291 95.8856 70.2541 95.7634 69.9486 95.7634C69.643 95.7634 69.3986 95.855 69.2152 96.0384C69.0319 96.2217 68.9402 96.4661 68.9402 96.7717C68.9402 97.0773 69.0319 97.3523 69.2152 97.5967C69.3986 97.8411 69.643 97.9634 69.9486 97.9634C70.2541 97.9634 70.5291 97.8411 70.7736 97.5967C71.018 97.3523 71.1402 97.0773 71.1402 96.7717C71.1402 96.4661 71.018 96.2523 70.7736 96.13Z" fill="#7F7E97"/>
</g>
<g clip-path="url(#clip1_6512_1886)">
<g clip-path="url(#clip2_6512_1886)">
<path d="M123 41.2034C122.494 41.5803 122.241 41.9572 121.987 42.0829C120.722 42.5855 119.456 43.088 118.19 43.5906C116.291 44.2188 115.152 45.4753 114.899 47.4856C114.646 49.119 114.392 50.7524 114.013 52.3858C113.886 52.8883 113.506 53.6422 113.127 53.7679C112.367 53.8935 112.367 53.014 112.24 52.5114C111.734 51.0037 111.228 49.3703 110.848 47.8625C110.215 45.7266 108.823 44.5958 106.544 44.5958C105.658 44.5958 104.899 44.4701 104.013 44.3445C103.506 44.3445 103.253 44.0932 103 43.8419C103.253 43.5906 103.38 43.2137 103.633 43.088C104.899 42.5855 106.291 42.0829 107.557 41.7059C108.823 41.329 109.709 40.4495 109.962 39.193C110.468 37.1828 110.848 35.1724 111.354 33.2878C111.608 32.6595 111.354 31.78 112.24 31.78C113.127 31.78 113 32.5339 113.127 33.0365C113.506 34.7955 113.886 36.4289 114.392 38.1879C115.025 40.4495 115.532 40.8264 117.937 40.8264C119.203 40.8264 120.595 40.7008 121.861 40.7008C121.987 40.7008 122.367 40.9521 123 41.2034Z" fill="#CECCFD"/>
<path d="M103 32.4917C102.747 32.6802 102.62 32.8686 102.494 32.9315C101.861 33.1828 101.228 33.434 100.595 33.6853C99.6456 33.9994 99.0759 34.6277 98.9494 35.6328C98.8228 36.4495 98.6962 37.2662 98.5063 38.0829C98.443 38.3342 98.2532 38.7111 98.0633 38.7739C97.6835 38.8368 97.6835 38.397 97.6203 38.1457C97.3671 37.3919 97.1139 36.5752 96.9241 35.8213C96.6076 34.7533 95.9114 34.1879 94.7722 34.1879C94.3291 34.1879 93.9494 34.1251 93.5063 34.0623C93.2532 34.0623 93.1266 33.9366 93 33.811C93.1266 33.6853 93.1899 33.4969 93.3165 33.434C93.9494 33.1828 94.6456 32.9315 95.2785 32.743C95.9114 32.5545 96.3544 32.1148 96.481 31.4865C96.7342 30.4814 96.924 29.4762 97.1772 28.5339C97.3038 28.2198 97.1772 27.78 97.6203 27.78C98.0633 27.78 98 28.157 98.0633 28.4083C98.2532 29.2878 98.443 30.1045 98.6962 30.984C99.0127 32.1148 99.2658 32.3032 100.468 32.3032C101.101 32.3032 101.797 32.2404 102.43 32.2404C102.494 32.2404 102.684 32.3661 103 32.4917Z" fill="#CECCFD"/>
</g>
</g>
<defs>
<linearGradient id="paint0_linear_6512_1886" x1="75" y1="0.780029" x2="75" y2="150.78" gradientUnits="userSpaceOnUse">
<stop stop-color="white"/>
<stop offset="1" stop-color="#F1F1FA"/>
</linearGradient>
<clipPath id="clip0_6512_1886">
<rect width="55.02" height="55" fill="white" transform="matrix(1 0 0 -1 47.4805 103.28)"/>
</clipPath>
<clipPath id="clip1_6512_1886">
<rect width="30" height="26" fill="white" transform="translate(93 27.78)"/>
</clipPath>
<clipPath id="clip2_6512_1886">
<rect width="30" height="26" fill="white" transform="translate(93 27.78)"/>
</clipPath>
</defs>
</svg>
